<svg xmlns="http://www.w3.org/2000/svg" viewBox="0 0 70.63 70.87"><defs><style>.cls-1{fill:#a5a5a5;}</style></defs><title>investor</title><g id="Layer_2" data-name="Layer 2"><g id="Layer_1-2" data-name="Layer 1"><path class="cls-1" d="M35.19,9a1.4,1.4,0,0,0,1.39-1.4V1.4a1.39,1.39,0,1,0-2.78,0V7.61A1.4,1.4,0,0,0,35.19,9"/><path class="cls-1" d="M69.27,47.89,66.8,45.44a4.58,4.58,0,0,0-3.28-1.36,4.66,4.66,0,0,0-2.24.57L56.64,40l.22-.22a4.82,4.82,0,0,0,0-6.83,4.75,4.75,0,0,0-2.42-1.32,5.06,5.06,0,0,0,.19-1.35,4.79,4.79,0,0,0-1.41-3.42,4.88,4.88,0,0,0-2.43-1.31,4.82,4.82,0,0,0-3.65-6.08A4.82,4.82,0,0,0,42,13.32l-9.19-1.74c-1.4-.27-3.15-.44-4.26.56l-.21.22a4.86,4.86,0,0,0-5.09,1.12,4.81,4.81,0,0,0-1.41,3.42A5.13,5.13,0,0,0,22,18.26a4.66,4.66,0,0,0-2.42,1.31A4.78,4.78,0,0,0,18.17,23a5.13,5.13,0,0,0,.19,1.36,4.83,4.83,0,0,0-3,7.46A4.76,4.76,0,0,0,13.51,33a4.85,4.85,0,0,0,0,6.84l.23.23L9.1,44.65a4.68,4.68,0,0,0-5.28.91L1.36,48a4.66,4.66,0,0,0,0,6.58l3.07,3.07a1.4,1.4,0,1,0,2-2L3.33,52.62a1.83,1.83,0,0,1-.54-1.31A1.85,1.85,0,0,1,3.33,50l2.46-2.45a1.87,1.87,0,0,1,2.28-.28,1.57,1.57,0,0,0,.17.21,1.52,1.52,0,0,0,.4.28L22.77,61.86a1.3,1.3,0,0,0,.68.68,1.88,1.88,0,0,1-.08,2.55l-2.46,2.46a1.88,1.88,0,0,1-2.64,0L15.2,64.47a1.4,1.4,0,0,0-2,2l3.08,3.08a4.68,4.68,0,0,0,6.58,0l2.46-2.46A4.66,4.66,0,0,0,26,61.3l5.23-5.22h0c.6-.62,2.27-.51,3.88-.39a20.28,20.28,0,0,0,3.66,0l5.72,5.71a4.77,4.77,0,0,0-.56,2.24,4.58,4.58,0,0,0,1.36,3.28l2.46,2.46a4.66,4.66,0,0,0,6.58,0L69.27,54.47a4.66,4.66,0,0,0,0-6.58m-37-33.57,6,1.14L34.7,19.08a8.86,8.86,0,0,1-2.17-1.57,6.44,6.44,0,0,1-2.05-3.17h0a.66.66,0,0,1,0-.13,4.47,4.47,0,0,1,1.8.12M25.2,15.45a2.06,2.06,0,0,1,2.6-.24,10.08,10.08,0,0,0,2.8,4.31,10.33,10.33,0,0,0,4,2.49A2.07,2.07,0,0,1,35,23.18a2,2,0,0,1-3.49,1.44h0L25.2,18.34a2,2,0,0,1-.59-1.44,2.06,2.06,0,0,1,.59-1.45m-3.64,6.09a2,2,0,0,1,1.45-.6,2,2,0,0,1,1.45.6l5.06,5.05a2.05,2.05,0,0,1-2.9,2.9l-3.84-3.84,0,0-1.2-1.2A2,2,0,0,1,21,23a2,2,0,0,1,.6-1.44m-3.65,6.08a2.08,2.08,0,0,1,2.89,0l3.85,3.85a2,2,0,0,1-2.9,2.89L20.35,33h0l-2.44-2.44a2,2,0,0,1-.6-1.44,2,2,0,0,1,.6-1.45m-2.43,7.31a2.05,2.05,0,0,1,2.9,0l1.4,1.39a2,2,0,0,1,.6,1.45,2,2,0,0,1-2.05,2,2,2,0,0,1-1.45-.6L16.71,39h0l-1.21-1.2a2.06,2.06,0,0,1,0-2.89M43.89,50.77a1.4,1.4,0,0,0-2,0L40.68,52c-1.18,1.18-3.31,1-5.38.89-2.24-.16-4.56-.32-6.06,1.22L24.1,59.25,11.26,46.43l4.55-4.54a4.83,4.83,0,0,0,7.36-4.12v0h0A4.81,4.81,0,0,0,28,32.9v0h0A4.81,4.81,0,0,0,32.9,28h0a4.83,4.83,0,0,0,4.83-4.83,4.88,4.88,0,0,0-.7-2.52l4-4a2,2,0,0,1,1.05-.56l.12,0a2,2,0,0,1,1.73.57,2.05,2.05,0,0,1,0,2.9l-1.21,1.2v0l-1.4,1.39a1.4,1.4,0,0,0,0,2,1.38,1.38,0,0,0,2,0l1.22-1.21h0l.19-.19a2,2,0,0,1,2.89,0,2.05,2.05,0,0,1,0,2.89l-1.21,1.22h0L45,28.26a1.4,1.4,0,1,0,2,2l1.4-1.4a2,2,0,0,1,1.45-.59,2,2,0,0,1,2,2,2,2,0,0,1-.6,1.44l-2.43,2.44a1.39,1.39,0,1,0,2,2L52,34.94h0a2,2,0,0,1,1.44-.6,2,2,0,0,1,1.45.6,2,2,0,0,1,0,2.89L53.68,39h0L51.75,41a1.4,1.4,0,0,0,1,2.38,1.34,1.34,0,0,0,1-.41l1-.94,4.5,4.51L46.34,59.31l-4.61-4.59a5.33,5.33,0,0,0,.92-.74l1.24-1.24a1.39,1.39,0,0,0,0-2M67.3,52.5,52.35,67.42A1.81,1.81,0,0,1,51,68a1.85,1.85,0,0,1-1.32-.54L47.26,65a1.84,1.84,0,0,1-.55-1.31,1.86,1.86,0,0,1,.55-1.32L62.2,47.41a1.85,1.85,0,0,1,1.32-.54,1.83,1.83,0,0,1,1.31.54l2.47,2.46a1.83,1.83,0,0,1,.54,1.31,1.85,1.85,0,0,1-.54,1.32"/><path class="cls-1" d="M16.68,7.83a1.39,1.39,0,0,0,2-2L13.57.79a1.39,1.39,0,0,0-2,2Z"/><path class="cls-1" d="M52.72,8.24a1.4,1.4,0,0,0,1-.41l5.08-5.07a1.4,1.4,0,0,0,0-2,1.38,1.38,0,0,0-2,0L51.73,5.86a1.4,1.4,0,0,0,1,2.38"/><path class="cls-1" d="M47.3,48.76a1.42,1.42,0,0,0,.63-.15,1.39,1.39,0,0,0-1.25-2.49h0A1.39,1.39,0,0,0,46.05,48a1.41,1.41,0,0,0,1.25.76"/></g></g></svg>