<svg xmlns="http://www.w3.org/2000/svg" viewBox="0 0 20.34 18.59"><defs><style>.cls-1{fill:#525252;}</style></defs><title>sociallinkedin</title><g id="Layer_2" data-name="Layer 2"><g id="Layer_1-2" data-name="Layer 1"><path class="cls-1" d="M.66,18.59H3.3A.66.66,0,0,0,4,17.93V6.36A.66.66,0,0,0,3.3,5.7H.66A.67.67,0,0,0,0,6.36V17.93a.67.67,0,0,0,.66.66"/><path class="cls-1" d="M.66,3.67H3.3A.66.66,0,0,0,4,3V.66A.65.65,0,0,0,3.3,0H.66A.66.66,0,0,0,0,.66V3a.67.67,0,0,0,.66.66Z"/><path class="cls-1" d="M19.35,7.05a3.93,3.93,0,0,0-1.64-1.21,6.19,6.19,0,0,0-2.4-.48,5.88,5.88,0,0,0-4.52,2c-.25.27-.43.21-.43-.16V6.36A.66.66,0,0,0,9.7,5.7H7.34a.67.67,0,0,0-.66.66V17.93a.67.67,0,0,0,.66.66H10a.67.67,0,0,0,.66-.66v-4a12.5,12.5,0,0,1,.3-3.45A2.85,2.85,0,0,1,12.07,9a3.2,3.2,0,0,1,1.85-.56,2.29,2.29,0,0,1,1.37.4,2.17,2.17,0,0,1,.83,1.1A11.84,11.84,0,0,1,16.37,13v4.89a.67.67,0,0,0,.67.66h2.64a.67.67,0,0,0,.66-.66V11.38a12.56,12.56,0,0,0-.22-2.67,4.28,4.28,0,0,0-.77-1.66"/></g></g></svg>