<svg xmlns="http://www.w3.org/2000/svg" viewBox="0 0 17.72 14.37"><defs><style>.cls-1{fill:#525252;fill-rule:evenodd;}</style></defs><title>socialtwitter</title><g id="Layer_2" data-name="Layer 2"><g id="Layer_1-2" data-name="Layer 1"><path class="cls-1" d="M5.61,14.37A10.24,10.24,0,0,0,15.94,4.22a.54.54,0,0,0,0-.18v-.5a7.91,7.91,0,0,0,1.78-1.87,7.79,7.79,0,0,1-2.07.59,3.84,3.84,0,0,0,1.57-2A9.14,9.14,0,0,1,15,1.18,3.51,3.51,0,0,0,12.3,0,3.69,3.69,0,0,0,8.66,3.64a1.91,1.91,0,0,0,.1.79A10.16,10.16,0,0,1,1.28.59,3.84,3.84,0,0,0,.79,2.46,3.9,3.9,0,0,0,2.36,5.51,3.28,3.28,0,0,1,.69,5a3.59,3.59,0,0,0,3,3.54,3,3,0,0,1-1,.1A1.61,1.61,0,0,1,2,8.56a3.72,3.72,0,0,0,3.44,2.56A7.47,7.47,0,0,1,.89,12.7,3,3,0,0,1,0,12.6a9.33,9.33,0,0,0,5.61,1.77"/></g></g></svg>