<svg xmlns="http://www.w3.org/2000/svg" viewBox="0 0 17.75 17.76"><defs><style>.cls-1{fill:#525252;fill-rule:evenodd;}</style></defs><title>socialig</title><g id="Layer_2" data-name="Layer 2"><g id="Layer_1-2" data-name="Layer 1"><path class="cls-1" d="M8.88,1.59a27.91,27.91,0,0,1,3.54.1,4.74,4.74,0,0,1,1.67.3,3.49,3.49,0,0,1,1.68,1.67,4.57,4.57,0,0,1,.29,1.68c0,.88.1,1.18.1,3.54a27.91,27.91,0,0,1-.1,3.54,4.52,4.52,0,0,1-.29,1.67,3.51,3.51,0,0,1-1.68,1.68,4.52,4.52,0,0,1-1.67.29c-.89,0-1.18.1-3.54.1a26.27,26.27,0,0,1-3.55-.1,4.52,4.52,0,0,1-1.67-.29A3.45,3.45,0,0,1,2,14.09a4.33,4.33,0,0,1-.3-1.67c0-.89-.1-1.18-.1-3.54a27.86,27.86,0,0,1,.1-3.54A4.38,4.38,0,0,1,2,3.66a3.35,3.35,0,0,1,.69-1,1.64,1.64,0,0,1,1-.69,4.74,4.74,0,0,1,1.67-.3,28,28,0,0,1,3.55-.1M8.88,0a29.67,29.67,0,0,0-3.65.1A6.12,6.12,0,0,0,3.07.51a3.85,3.85,0,0,0-1.58,1,3.73,3.73,0,0,0-1,1.57A4.47,4.47,0,0,0,.12,5.23,29.61,29.61,0,0,0,0,8.88a29.5,29.5,0,0,0,.1,3.64,6.12,6.12,0,0,0,.39,2.16,3.85,3.85,0,0,0,1,1.58,3.73,3.73,0,0,0,1.57,1,6.13,6.13,0,0,0,2.16.4,29.5,29.5,0,0,0,3.64.1,29.61,29.61,0,0,0,3.65-.1,6.16,6.16,0,0,0,2.16-.39,4.14,4.14,0,0,0,2.56-2.57,6.12,6.12,0,0,0,.39-2.16c0-1,.1-1.28.1-3.64a29.45,29.45,0,0,0-.1-3.64,6.17,6.17,0,0,0-.39-2.17,4,4,0,0,0-1-1.58,3.84,3.84,0,0,0-1.57-1A6.12,6.12,0,0,0,12.52.12,29.5,29.5,0,0,0,8.88,0m0,4.33A4.46,4.46,0,0,0,4.35,8.73v.15A4.53,4.53,0,1,0,8.88,4.35m0,7.48A2.91,2.91,0,0,1,5.92,9V8.88a2.9,2.9,0,0,1,2.86-3h.1a2.9,2.9,0,0,1,2.95,2.85v.1A2.9,2.9,0,0,1,9,11.83h-.1M13.6,3.07a1.09,1.09,0,1,0,1.08,1.09A1.08,1.08,0,0,0,13.6,3.07"/></g></g></svg>