<svg xmlns="http://www.w3.org/2000/svg" xmlns:xlink="http://www.w3.org/1999/xlink" viewBox="0 0 248.35 286.03"><defs><style>.cls-1{fill:none;}.cls-2{isolation:isolate;}.cls-3{mix-blend-mode:multiply;}.cls-4{clip-path:url(#clip-path);}.cls-5{fill:#e2e2e2;}.cls-6{fill:#0f3871;}.cls-7{fill:#ffcf33;}.cls-8{fill:#8208bc;}.cls-9{fill:#fdc8a8;}.cls-10{clip-path:url(#clip-path-2);}.cls-11{fill:#520b7c;}.cls-12{clip-path:url(#clip-path-3);}.cls-13{clip-path:url(#clip-path-4);}.cls-14{fill:#fbc900;}.cls-15{clip-path:url(#clip-path-5);}.cls-16{fill:#ffc55e;}.cls-17{fill:#37447f;}.cls-18{fill:#ff9975;}.cls-19{clip-path:url(#clip-path-6);}.cls-20{clip-path:url(#clip-path-7);}.cls-21{clip-path:url(#clip-path-8);}.cls-22{opacity:0.3;}.cls-23{clip-path:url(#clip-path-10);}.cls-24{fill:#fff;}.cls-25{clip-path:url(#clip-path-11);}.cls-26{clip-path:url(#clip-path-12);}.cls-27{clip-path:url(#clip-path-13);}</style><clipPath id="clip-path"><rect class="cls-1" x="120.63" y="218.14" width="127.72" height="58.07"/></clipPath><clipPath id="clip-path-2"><rect class="cls-1" x="115.08" y="58.05" width="54.93" height="69.3"/></clipPath><clipPath id="clip-path-3"><rect class="cls-1" x="132.16" y="37.76" width="18.79" height="12.43"/></clipPath><clipPath id="clip-path-4"><rect class="cls-1" x="126.49" y="5.9" width="25.6" height="41.44"/></clipPath><clipPath id="clip-path-5"><rect class="cls-1" x="85.82" y="50.74" width="30.65" height="59.88"/></clipPath><clipPath id="clip-path-6"><rect class="cls-1" x="105.51" y="38.9" width="17.1" height="30.85"/></clipPath><clipPath id="clip-path-7"><rect class="cls-1" x="26.79" y="24.13" width="82.48" height="92.38"/></clipPath><clipPath id="clip-path-8"><rect class="cls-1" x="2.17" y="24.75" width="78.43" height="106.16"/></clipPath><clipPath id="clip-path-10"><rect class="cls-1" x="39.15" y="77.45" width="35.96" height="50.94"/></clipPath><clipPath id="clip-path-11"><rect class="cls-1" x="32.08" y="77.83" width="40.08" height="41.17"/></clipPath><clipPath id="clip-path-12"><rect class="cls-1" x="44.23" y="73.42" width="31.31" height="14.33"/></clipPath><clipPath id="clip-path-13"><rect class="cls-1" x="38.35" y="70.74" width="12.23" height="18.7"/></clipPath></defs><title>ceosvg</title><g class="cls-2"><g id="Layer_2" data-name="Layer 2"><g id="Layer_1-2" data-name="Layer 1"><g class="cls-3"><g class="cls-4"><path class="cls-5" d="M121.92,264.4c7.33,1.09,49.35,11.81,49.35,11.81,21.47-22.41,82.5-32.14,76.69-50-4.12-12.69-52.7-10.58-82,7.89-26.25,16.56-51.4,29.24-44.06,30.33"/></g></g><path class="cls-6" d="M140.15,249.86s2.37,6.34,2.12,10-2.12,4.91-2.12,4.91-27.58,3.85-28.12,0S130.4,252.4,130.4,252.4Z"/><path class="cls-7" d="M119.79,44.71l-5.37,5.6s-15.36,48.36-15.1,52.52,5.61,5.19,9,4.07,13.63-31,13.63-31Z"/><path class="cls-8" d="M119.79,44.71l-5.37,5.6s-15.36,48.36-15.1,52.52,5.61,5.19,9,4.07,13.63-31,13.63-31Z"/><path class="cls-9" d="M139.55,238.05l.5,13.34s.15,3.16-4.13,3.2a5.63,5.63,0,0,1-5.47-3.73l-2.25-20Z"/><path class="cls-9" d="M168,251.07l2,12s-.93,4.2-4.75,3.48-4.79-6-4.79-6l-1.82-12.79Z"/><path class="cls-6" d="M169.74,261.15s-.52,3.45-3.59,3.14-5.64-3.68-5.64-3.68l-1.3,13.82s-.17,9.21,5.15,11.34,6.91-9.56,6.91-9.56Z"/><path class="cls-6" d="M164.75,123.12s-1.75,19.29-2.91,22.81.09,50.94.09,50.94,8.55,56.36,7.92,59.39-9.21,1.17-11.13-1.95-15.57-50-17.1-63.31a247.89,247.89,0,0,0-5.32-28.13s-.37,21.29-.48,24.35S140.19,246,140.19,246s-.31,1.61-5.47,2.18c-1.69.18-4.61-.5-5.75-2.55-2.84-5.08-3.43-16-3.43-16S113.2,166,114.47,159.4s-.09-50.93-.09-50.93l8.25-2.74Z"/><path class="cls-8" d="M148.25,47.37s-16.68-6.09-23.68-4.63-9.47,6-10.14,8.28.58,93.3.58,93.3,55.34,22.43,53.29,8.37c-1.79-12.27-1.5-32.58-1.7-35.12a31,31,0,0,1-.11-4.62L170,63.55Z"/><g class="cls-3"><g class="cls-10"><path class="cls-11" d="M118.26,88.33,153,96.67l8.72-36.75.88-1.87,7.4,5.5L166.49,113a31,31,0,0,0,.11,4.62c.16,2.12-.48,6.07-6.15,9.78-11.41-6.42-34.31-20.21-43.34-30.16-5.16-5.69,1.15-8.86,1.15-8.86"/></g></g><path class="cls-8" d="M152.64,79.65s-8.5-30.71-4.39-32.28c0,0,23.21,8.72,25.85,15.18s1.8,12.07,4,22c0,0,5.25,21.29,4.18,26.74s-7,8.12-20.31,2.12-46.61-20.57-46.61-20.57l.52-6,39.66,5.85Z"/><path class="cls-9" d="M93,101.13c-.13,3.44,7.42,7,10.85,7.12s2.38,1.7,4.47-1.35c1.95-2.83-6-7.61-9.39-7.74s-5.8-1.46-5.93,2"/><path class="cls-9" d="M101.27,94,106,87.28a1.75,1.75,0,0,1,2.85,2L104.12,96a1.75,1.75,0,0,1-2.85-2"/><path class="cls-9" d="M151.78,53.09c.08,3.25-3.86,5-9.22,5.12,0,0-10.37-.4-10.2-4.78l.28-24.59c-.07-3.25,3.33-5.93,8.7-6s8,2.51,8.11,5.77Z"/><g class="cls-3"><g class="cls-12"><path class="cls-9" d="M132.42,41.66l18.17-3.9.35,4c-3.91,3.47-10.17,8-12.19,8.43-1.86.41-6.51-1.84-6.59-2.92Z"/></g></g><path class="cls-9" d="M130.53,19l-2-1.09c-1.66-.88-3.12,0-3.46,1.95-.58,3.35,2.2,3.79,1.91,6.43l4.36-.26Z"/><path class="cls-9" d="M154.25,26.52l2.25-.35c1.87-.28,2.95,1,2.61,3-.58,3.35-3.2,2.72-4.13,5.6l-3.84-1.89Z"/><path class="cls-9" d="M127,34.71c1.15,4.77,4.58,11.68,7.77,12.63,3.59,1,14.94-3.41,16.87-6.45C157,32.49,161.84,9.09,144.49,7c-4.63-.56-12.34-3.83-15.53,4.5-2,5.29-3.23,17.84-1.94,23.21"/><g class="cls-3"><g class="cls-13"><path class="cls-9" d="M127,34.71c-1.29-5.37-.08-17.92,1.94-23.21,3.19-8.33,10.9-5.06,15.53-4.5a15.21,15.21,0,0,1,7.6,2.85,4.89,4.89,0,0,0-.51.26,33.25,33.25,0,0,0-8.15,7.13c-.18.21-.76-.74-.85-.52a19.21,19.21,0,0,1-5.36,1.88c-1.62.1-7.61-2.21-8.49.39a27.13,27.13,0,0,0-1.29,14.32c2.24,10.65,7.35,14,7.35,14-3.19-1-6.62-7.86-7.77-12.63"/></g></g><path class="cls-6" d="M126.57,34.56c-1.63,3.81,3.8,14.37,7.42,15.45,4.06,1.19,17.49-4.27,19-8.07,2.69-6.95,2.62-8.11.6-8.21-1.31-.07-5.17,4.81-8.45,5.09-2.33.2-1.07-4.13-8.66-4.25-5.58-.09-4.67,1-6.2,1.74-2.31,1.09-2.81-3.79-3.67-1.75"/><path class="cls-6" d="M142.38,1.65c-1.15-1.6.23,6.69-3.18,3.94-1.53-1.23-5.47-.47-7.81,3.12l15.86,5.39c1,.08,2,.17,3.05.29a5.33,5.33,0,0,1,4.41,5.15c1.4-.6,2.81-1.2,4.2-1.91.48-14.48-12.59-10.51-16.53-16"/><path class="cls-6" d="M132.69,1.33c-.7,1.77.69,4.32,3.09,5.7s6.92-.63,7.62-2.39-2.28-.43-4.6-3c-1.91-2.16-5.41-2-6.11-.28"/><path class="cls-6" d="M132,16.27c-3.92-.57-5.15,7.38-5.15,7.38-1.09-.24-.87-6.19.8-10.78,1-2.88,7.18,3.81,4.35,3.4"/><path class="cls-6" d="M132,16.27c-3.92-.57-5.15,7.38-5.15,7.38-1.09-.24-.87-6.19.8-10.78,1-2.88,7.18,3.81,4.35,3.4"/><path class="cls-6" d="M128.06,9.35c-.65,2.62-.14,5.64,4,7.65,7.37,3.63,9.57-1.34,19.92,2.11.88.3-.9,2.39,1.78,5.12S155.18,32,155.18,32c1.53.13,3-11.12,3.31-12.28,1.41-5.61-4.25-12.48-12.65-15.33s-16.36-.62-17.78,5"/><path class="cls-6" d="M155.46,28.7s1.77-8.91,1.79-11.5c0-3.66,0-6.2-3.24-8.42-1.56-1.07-6.38-2-8.19-2.39-2.28-.51-3.53-1.75-5.07-3.4a6.28,6.28,0,0,0,1,.33c.13-1.27.17-2.34.65-1.67,3.94,5.47,17,1.5,16.53,16l-.22.11a7.11,7.11,0,0,1-.2,2c-.29,1.16-1.78,12.41-3.31,12.28a26.25,26.25,0,0,0,.28-3.27"/><path class="cls-14" d="M97.86,108.15c-.74,4.77,10.72,2.14,12.94-3.56,3-7.73,8.36-30.31,4.06-48s-33.81,10.19-28.37,13c11.3,5.84,14.23,20.14,11.37,38.55"/><g class="cls-3"><g class="cls-15"><path class="cls-16" d="M114.86,56.58c-4.3-17.69-33.81,10.2-28.37,13a25.69,25.69,0,0,1,8.44,7.49c2.38-1.18,12.37-8.83,15.47-7.24,2.18,1.12,3.57,2.41,3.08,10.83-.62,10.91-1,19-5.27,24-1.41,1.68-6.21,5.84-10.38,3.91,0,4.14,10.82,1.5,13-4,3-7.73,8.36-30.31,4.06-48"/></g></g><path class="cls-17" d="M95.86,23.5A20.16,20.16,0,0,0,116,58.41a19.09,19.09,0,0,0,3-2.17,20.12,20.12,0,0,0,4.55-24.94c-.07-.14-.14-.28-.22-.42A20.17,20.17,0,0,0,95.86,23.5"/><path class="cls-18" d="M80.56,27.05h0c2.86-1.65,6.71-1.58,11,.51.45.21.91.46,1.37.72s1.07.64,1.6,1a27.2,27.2,0,0,1,2.55,2,35,35,0,0,1,4.29,4.39,42.1,42.1,0,0,1,7.88,15,29.59,29.59,0,0,1,1.16,7.92c0,5.43-1.86,9.29-4.89,11.17l10.76-6.2v0a13.93,13.93,0,0,0,6.35-12A29.27,29.27,0,0,0,121.54,44a41.91,41.91,0,0,0-8-15.34,35,35,0,0,0-4.28-4.4,26.07,26.07,0,0,0-2.56-2c-.52-.36-1.06-.7-1.59-1s-.92-.5-1.38-.71a13.79,13.79,0,0,0-12.2.21h0l-.3.17a3,3,0,0,0-.38.23Z"/><g class="cls-3"><g class="cls-19"><path class="cls-18" d="M122.61,51.52A29.27,29.27,0,0,0,121.54,44a38.05,38.05,0,0,0-1.77-5.06c0,.36,0,.71-.08,1.08-.67,5.4-5.08,10.17-10,12.38a28.73,28.73,0,0,1,.73,6.22c0,5.43-1.86,9.29-4.89,11.17l10.76-6.2v0a13.93,13.93,0,0,0,6.35-12"/></g></g><path class="cls-18" d="M80.57,27.06l3.64,6.29C84.22,44.49,92,58,101.69,63.6l0,0,3.61,6.23.18-.1c3-1.88,4.89-5.74,4.89-11.17,0-11.16-7.83-24.71-17.48-30.29-4.82-2.78-9.19-3.05-12.35-1.23"/><path class="cls-18" d="M75.43,38.38c0,11.16,7.82,24.71,17.48,30.29,4.85,2.8,9.25,3,12.42,1.18l.18-.1c3-1.88,4.89-5.74,4.89-11.17,0-11.16-7.83-24.71-17.48-30.29-4.82-2.78-9.19-3.05-12.35-1.23s-5.14,5.74-5.14,11.32"/><path class="cls-18" d="M75.43,38.38c0,11.16,7.82,24.71,17.48,30.29,4.85,2.8,9.25,3,12.42,1.18l.18-.1c3-1.88,4.89-5.74,4.89-11.17,0-11.16-7.83-24.71-17.48-30.29-4.82-2.78-9.19-3.05-12.35-1.23s-5.14,5.74-5.14,11.32"/><path class="cls-14" d="M26.79,24.13S52.11,36.72,67.18,62.81a120.94,120.94,0,0,1,7.14,14.55c7.57,18.56,6.25,39.15,6.25,39.15,3.89-29.54,24.15-47.6,24.15-47.6h0c2.88-1.67,4.57-5.31,4.57-10.33a30.13,30.13,0,0,0-2-10.27,40.75,40.75,0,0,0-3-6.4c-3.07-5.31-7.3-9.94-12-12.64C88,26.76,84,26.4,81.13,28.06h0s-14.55,6.34-54.33-3.92"/><g class="cls-3"><g class="cls-20"><path class="cls-16" d="M105.19,59.79c-5.71,5.7-18.8,16.59-23.11,9.31C72.86,53.54,59,36.07,43,29a2.66,2.66,0,0,1-1.49-1.53c-4.47-.83-9.38-1.91-14.75-3.3,0,0,25.32,12.59,40.39,38.68a120.94,120.94,0,0,1,7.14,14.55c7.57,18.56,6.25,39.15,6.25,39.15,3.89-29.54,24.14-47.6,24.14-47.6h0c2.88-1.67,4.57-5.31,4.57-10.33a26.43,26.43,0,0,0-.41-4.46,15.88,15.88,0,0,1-3.68,5.68"/></g></g><path class="cls-14" d="M0,49.09C0,60.72,4.2,77.19,10.16,89h0C17.8,104,32.45,121.19,45.35,128.64c23,13.26,39.73,2.5,39.73-24a101.85,101.85,0,0,0-3.37-22.55A99.16,99.16,0,0,0,56.5,39.35c-1.63-1.6-3.3-3.11-5-4.51-.72-.59-1.44-1.16-2.17-1.71h0c-1-.79-2.07-1.53-3.13-2.24s-2.25-1.35-3.32-2.07C17.18,11.58,0,22.56,0,49.09"/><path class="cls-14" d="M2.17,50.34c0,13.06,4.58,27.8,12,41.09,8,14.37,19.21,27.06,31.44,34.12,6.09,3.5,12,5.37,17.06,5.36a15.13,15.13,0,0,0,12.48-5.76c3.58-4.48,5.48-11.34,5.48-19.83a71,71,0,0,0-2.69-18.59c-.66-2.4-1.42-4.82-2.3-7.22A103.62,103.62,0,0,0,70.14,67.1c-.43-.83-.87-1.66-1.32-2.47q-1.11-2.05-2.33-4a103.48,103.48,0,0,0-9.14-12.86,1.71,1.71,0,0,1-.11-.14,91.14,91.14,0,0,0-6.93-7.42C48.59,38.5,46.83,37,45,35.52c-.75-.6-1.51-1.18-2.28-1.75s-1.86-1.31-2.8-1.93-1.83-1.16-2.76-1.7c-6.1-3.53-12-5.38-17.07-5.39-11.25,0-18,9.58-18,25.59"/><g class="cls-3"><g class="cls-21"><path class="cls-16" d="M2.17,50.34c0,13.06,4.58,27.8,12,41.09,8,14.37,19.21,27.06,31.44,34.12,6.09,3.5,12,5.37,17.06,5.36a15.13,15.13,0,0,0,12.48-5.76c3.58-4.48,5.48-11.34,5.48-19.83a71,71,0,0,0-2.69-18.59c-.66-2.4-1.42-4.82-2.3-7.22A103.62,103.62,0,0,0,70.14,67.1c-.43-.83-.87-1.66-1.32-2.47q-1.11-2.05-2.33-4a103.48,103.48,0,0,0-9.14-12.86,1.71,1.71,0,0,1-.11-.14,91.14,91.14,0,0,0-6.93-7.42C48.59,38.5,46.83,37,45,35.52c-.75-.6-1.51-1.18-2.28-1.75s-1.86-1.31-2.8-1.93-1.83-1.16-2.76-1.7c-6.1-3.53-12-5.38-17.07-5.39-11.25,0-18,9.58-18,25.59"/></g></g><g class="cls-3"><g class="cls-21"><path class="cls-16" d="M2.17,50.34c0,13.06,4.58,27.8,12,41.09,8,14.37,19.21,27.06,31.44,34.12,6.09,3.5,12,5.37,17.06,5.36a15.13,15.13,0,0,0,12.48-5.76c3.58-4.48,5.48-11.34,5.48-19.83a71,71,0,0,0-2.69-18.59c-.66-2.4-1.42-4.82-2.3-7.22A103.62,103.62,0,0,0,70.14,67.1c-.43-.83-.87-1.66-1.32-2.47q-1.11-2.05-2.33-4a103.48,103.48,0,0,0-9.14-12.86,1.71,1.71,0,0,1-.11-.14,91.14,91.14,0,0,0-6.93-7.42C48.59,38.5,46.83,37,45,35.52c-.75-.6-1.51-1.18-2.28-1.75s-1.86-1.31-2.8-1.93-1.83-1.16-2.76-1.7c-6.1-3.53-12-5.38-17.07-5.39-11.25,0-18,9.58-18,25.59"/></g></g><g class="cls-22"><g class="cls-23"><path class="cls-24" d="M75.11,78.19c-.1-.24-.19-.49-.29-.74-.3.19-1,0-1.08.36-6.68,26.33-34.59,43.44-34.59,43.44,3.39,3.4,9.66,6.69,12.34,7.14,18.25-25.47,23.62-38.95,23.62-50.2"/></g></g><g class="cls-22"><g class="cls-25"><path class="cls-24" d="M72.16,78.34c-.1-.25-.54-.75-.74-.38C58,102.32,32.08,115.22,32.08,115.22A46.33,46.33,0,0,0,36,119C57.79,101.07,62.1,98.76,72.16,78.34"/></g></g><path class="cls-17" d="M34.66,67.4c4.06,1.88,6.74,5.13,9.16,8.8,1.79,2.71,5.92,7.76,5.32,11.55,8.86-4.46,18.94-8.55,26.4-8.42a101.69,101.69,0,0,0-5.49-12.41c-.4-.77-.81-1.54-1.23-2.3-.74-1.36-1.52-2.72-2.33-4a103.48,103.48,0,0,0-9.14-12.86,1.71,1.71,0,0,1-.11-.14c-2.48,7.9-11.55,14.08-22.62,19.8l0,0"/><g class="cls-3"><g class="cls-26"><path class="cls-17" d="M75.54,79.33c-.72-2-1.52-4-2.38-5.91-4.42,2.11-8.89,4.2-13.78,4.86-2.73.38-5.63.51-8.18-.7a15.92,15.92,0,0,1-3.94-3,2.29,2.29,0,0,1-1.66,1.52,3,3,0,0,0-.41.09l-.19.07-.24.14,0,0-.12.09-.05,0-.32.3c1.94,2.81,5.47,7.41,4.9,10.94C58,83.29,68.08,79.2,75.54,79.33"/></g></g><path class="cls-14" d="M32.6,72.64a17.86,17.86,0,0,0,2.06,7.81h0a19,19,0,0,0,6.93,7.76c5,2.87,9,.54,9-5.19A15.39,15.39,0,0,0,50,79a21.47,21.47,0,0,0-5.45-9.23c-.35-.35-.71-.67-1.08-1-.16-.12-.31-.25-.47-.36h0c-.22-.17-.45-.34-.68-.49a6.59,6.59,0,0,0-.72-.44c-5-2.87-9-.55-9,5.18"/><g class="cls-3"><g class="cls-27"><path class="cls-14" d="M50,79a21.57,21.57,0,0,0-4.49-8.22,17.13,17.13,0,0,1,2.27,10.59c-.34,2.83-2.17,5.25-5.21,5.25a10.5,10.5,0,0,1-4.21-1,15.18,15.18,0,0,0,3.24,2.58c5,2.87,9,.55,9-5.19A15.39,15.39,0,0,0,50,79"/></g></g><path class="cls-17" d="M103.93,84.67l-6.44,1.38a.77.77,0,0,1-.91-.59l-.48-2.27a.75.75,0,0,1,.58-.9l6.44-1.38a.77.77,0,0,1,.91.59l.48,2.27a.75.75,0,0,1-.58.9"/><path class="cls-17" d="M104.37,92.38l-6.56.56a.76.76,0,0,1-.82-.69l-.2-2.32a.77.77,0,0,1,.69-.82l6.57-.56a.76.76,0,0,1,.82.69l.2,2.32a.76.76,0,0,1-.7.82"/><path class="cls-17" d="M103.08,99.2l-4.64.4a.78.78,0,0,1-.83-.7l-.2-2.31a.78.78,0,0,1,.7-.83l4.64-.39a.76.76,0,0,1,.83.69l.2,2.32a.77.77,0,0,1-.7.82"/><path class="cls-9" d="M105.25,88.54c-.13,3.43,14.4,6.56,14.53,3.13s-3.44-5.44-6.7-6.55c-5-1.72-7.7,0-7.83,3.42"/></g></g></g></svg>