<svg xmlns="http://www.w3.org/2000/svg" viewBox="0 0 59.08 59.05"><defs><style>.cls-1{fill:#a5a5a5;}</style></defs><title>mission</title><g id="Layer_2" data-name="Layer 2"><g id="Layer_1-2" data-name="Layer 1"><path class="cls-1" d="M29,0a29.1,29.1,0,0,1,9.29,1.35A1.43,1.43,0,0,1,39.42,3a1.35,1.35,0,0,1-1.24,1.24A4,4,0,0,1,37,4a47.49,47.49,0,0,0-6.33-1C20.41,2.77,12.34,7,6.89,15.69A26.32,26.32,0,0,0,9.05,46.44,25.47,25.47,0,0,0,25.1,55.72c9.61,1.48,17.83-1.39,24.37-8.64A25.67,25.67,0,0,0,56,27.33a44.44,44.44,0,0,0-.92-5.06c0-.23-.13-.46-.17-.69a1.48,1.48,0,0,1,1.15-1.86,1.4,1.4,0,0,1,1.69,1.18,43.74,43.74,0,0,1,1.08,5.28,28.54,28.54,0,0,1-5,20A28.55,28.55,0,0,1,35,58.53,29.27,29.27,0,0,1,.87,36.31c-2.57-11.2.59-20.91,9-28.73A28.16,28.16,0,0,1,29,0"/><path class="cls-1" d="M29.7,47.07A17.64,17.64,0,0,0,46.54,34.61a16.75,16.75,0,0,0,.7-6.18,1.6,1.6,0,0,1,1.43-1.93c.75-.07,1.43.58,1.52,1.61a18.22,18.22,0,0,1-.93,7.58A20.3,20.3,0,0,1,36.34,48.92a20.6,20.6,0,0,1-24.18-8.65,20.15,20.15,0,0,1-3-12.65,20,20,0,0,1,7.91-14.45A20.62,20.62,0,0,1,29.8,8.84,5.94,5.94,0,0,1,31.13,9a1.58,1.58,0,0,1,1.3,1.72,1.54,1.54,0,0,1-1.73,1.18,17.3,17.3,0,0,0-7.09,1A17.69,17.69,0,0,0,12.08,28a17.2,17.2,0,0,0,6,14.7A17.05,17.05,0,0,0,29.7,47.07"/><path class="cls-1" d="M50.26,8.82h4.22A1.39,1.39,0,0,1,56,9.63a1.39,1.39,0,0,1-.23,1.68c-2.93,2.94-5.85,5.89-8.83,8.78a2.53,2.53,0,0,1-1.52.52c-1.37.07-2.75,0-4.12.05a2,2,0,0,0-1.22.51c-3,2.94-6,5.92-8.95,8.89a3.91,3.91,0,0,1-.66.56,1.42,1.42,0,0,1-1.87-.2,1.39,1.39,0,0,1,0-1.88,10.77,10.77,0,0,1,.87-.92c2.84-2.85,5.67-5.7,8.53-8.53a1.71,1.71,0,0,0,.56-1.39c0-1.35-.08-2.7,0-4A2.86,2.86,0,0,1,39.19,12c2.75-2.83,5.56-5.59,8.34-8.38a1.58,1.58,0,0,1,1.85-.5,1.54,1.54,0,0,1,.89,1.62c0,1.32,0,2.64,0,4.1m.79,3H49.16c-1.3,0-1.81-.53-1.85-1.84,0-.56,0-1.12,0-1.8a2.7,2.7,0,0,0-.4.25l-5.17,5.15c-.11.11-.26.26-.26.39,0,1.22,0,2.45,0,3.72,1.13,0,2.16,0,3.19,0a1.72,1.72,0,0,0,1-.42c1.62-1.57,3.2-3.17,4.78-4.76.16-.16.3-.34.59-.67"/><path class="cls-1" d="M29.64,38.26a8.8,8.8,0,0,0,8.82-8.42c0-.66.1-1.34.77-1.61a2.1,2.1,0,0,1,1.4,0,1.36,1.36,0,0,1,.8,1.5A11.76,11.76,0,0,1,25,40.23,11.33,11.33,0,0,1,17.9,29.45,11.76,11.76,0,0,1,29.06,17.66a2,2,0,0,1,1.21.19,2.33,2.33,0,0,1,.81,1.33,1.19,1.19,0,0,1-.94,1.3,3.69,3.69,0,0,1-.93.15,8.82,8.82,0,0,0,.43,17.63"/></g></g></svg>