<svg xmlns="http://www.w3.org/2000/svg" viewBox="0 0 62.11 66.87"><defs><style>.cls-1{fill:#a5a5a5;}</style></defs><title>vision</title><g id="Layer_2" data-name="Layer 2"><g id="Layer_1-2" data-name="Layer 1"><path class="cls-1" d="M33,61.14c0,1.26,0,2.53,0,3.8s-.69,1.94-1.73,1.93A1.7,1.7,0,0,1,29.59,65c0-2.56,0-5.13,0-7.69a1.71,1.71,0,1,1,3.4,0c0,1.29,0,2.59,0,3.89"/><path class="cls-1" d="M32.25,48.34a31.68,31.68,0,0,1-10-1.54A61.74,61.74,0,0,1,3,36.88,22.79,22.79,0,0,1,.69,34.77a1.75,1.75,0,0,1,0-2.8,29.11,29.11,0,0,1,3.17-2.8A61.44,61.44,0,0,1,25.51,19.1a25.93,25.93,0,0,1,14,.77A60.13,60.13,0,0,1,59.35,30.08a21.28,21.28,0,0,1,2.12,2,1.59,1.59,0,0,1,0,2.57,63.61,63.61,0,0,1-6.06,4.84A57.09,57.09,0,0,1,38.2,47.23c-2.33.6-4.74.89-6,1.11M19.16,33.41A11.71,11.71,0,0,0,31,44.94,11.76,11.76,0,0,0,43,33.35a11.9,11.9,0,0,0-23.79.06m-.8,8.26a14.21,14.21,0,0,1-2.58-8.26,15.22,15.22,0,0,1,2.45-8.32A52,52,0,0,0,4.07,33.36c2.84,2.7,11.36,7.67,14.29,8.31M58,33.46c-2.14-2.39-11.75-8-14.14-8.32,3.36,5.49,3.35,11-.12,16.68A55.74,55.74,0,0,0,58,33.46"/><path class="cls-1" d="M32.49,5.72c0,1.3,0,2.59,0,3.89a1.7,1.7,0,1,1-3.39,0c0-2.56,0-5.13,0-7.69C29.11.71,29.79,0,30.84,0s1.65.77,1.65,2,0,2.48,0,3.72"/><path class="cls-1" d="M57.06,58.66A5.84,5.84,0,0,1,55.83,60a1.51,1.51,0,0,1-1.89-.34c-1.48-1.45-3-2.88-4.46-4.32-.45-.44-.92-.87-1.35-1.33a1.67,1.67,0,0,1-.07-2.46,1.63,1.63,0,0,1,2.38,0q2.94,2.79,5.81,5.65a6.65,6.65,0,0,1,.81,1.4"/><path class="cls-1" d="M5,58.64a6.4,6.4,0,0,1,.81-1.4c1.91-1.91,3.85-3.78,5.8-5.65a1.67,1.67,0,0,1,2.4,0A1.63,1.63,0,0,1,14,54c-1.93,1.92-3.9,3.82-5.86,5.72A1.49,1.49,0,0,1,6.24,60,6.54,6.54,0,0,1,5,58.64"/><path class="cls-1" d="M6.8,6.46a8,8,0,0,1,1.4.81c1.88,1.78,3.73,3.59,5.58,5.39a1.77,1.77,0,0,1,.31,2.59,1.7,1.7,0,0,1-2.58-.11c-1.92-1.82-3.8-3.68-5.7-5.52a1.51,1.51,0,0,1-.38-1.95A6,6,0,0,1,6.8,6.46"/><path class="cls-1" d="M57.07,8.25a7.43,7.43,0,0,1-.81,1.35q-2.84,2.84-5.73,5.61a1.7,1.7,0,0,1-2.53,0,1.66,1.66,0,0,1,.19-2.45c1.88-1.86,3.79-3.69,5.67-5.54a1.57,1.57,0,0,1,2-.41,6.09,6.09,0,0,1,1.25,1.4"/><path class="cls-1" d="M37,33.41a6,6,0,0,1-11.94,0,6,6,0,0,1,11.94,0m-6-2.5a2.48,2.48,0,1,0,2.58,2.44A2.48,2.48,0,0,0,31,30.91"/></g></g></svg>