<?xml version="1.0" standalone="no"?>
<!DOCTYPE svg PUBLIC "-//W3C//DTD SVG 1.1//EN" "http://www.w3.org/Graphics/SVG/1.1/DTD/svg11.dtd">
<svg xmlns="http://www.w3.org/2000/svg">
<metadata>Copyright (C) 2020 by original authors @ fontello.com</metadata>
<defs>
<font id="fcd" horiz-adv-x="1000" >
<font-face font-family="fcd" font-weight="400" font-stretch="normal" units-per-em="1000" ascent="850" descent="-150" />
<missing-glyph horiz-adv-x="1000" />
<glyph glyph-name="menu" unicode="&#xe800;" d="M852 608h-829c-12 0-23 10-23 23v63c0 13 11 23 23 23h829c13 0 23-10 23-23v-63c0-13-10-23-23-23z m0-313h-829c-12 0-23 11-23 24v62c0 13 11 24 23 24h829c13 0 23-11 23-24v-62c0-13-10-24-23-24z m0-312h-829c-12 0-23 10-23 23v63c0 13 11 23 23 23h829c13 0 23-10 23-23v-63c0-13-10-23-23-23z" horiz-adv-x="875" />

<glyph glyph-name="solid-angle-right" unicode="&#xe801;" d="M889 350l-889-500 0 1000z" horiz-adv-x="889" />

<glyph glyph-name="linkedin" unicode="&#xe802;" d="M36-150h142a36 36 0 0 1 35 35v623a36 36 0 0 1-35 35h-142a36 36 0 0 1-36-35v-623a36 36 0 0 1 36-35z m0 803h142a36 36 0 0 1 35 35v127a36 36 0 0 1-35 35h-142a36 36 0 0 1-36-35v-127a36 36 0 0 1 36-35z m1005-182a216 216 0 0 1-88 65 320 320 0 0 1-130 25 316 316 0 0 1-243-109c-13-15-22-11-22 8v48a36 36 0 0 1-36 35h-127a36 36 0 0 1-36-35v-623a36 36 0 0 1 36-35h142a36 36 0 0 1 36 35v217a696 696 0 0 0 16 185 153 153 0 0 0 60 81 171 171 0 0 0 100 30 127 127 0 0 0 74-21 119 119 0 0 0 44-60 636 636 0 0 0 14-169v-263a36 36 0 0 1 35-35h143a36 36 0 0 1 35 35v353a667 667 0 0 1-11 143 235 235 0 0 1-42 90z" horiz-adv-x="1095" />

<glyph glyph-name="gear" unicode="&#xe803;" d="M707 436v104h-109a240 240 0 0 1-33 78l77 77-73 73-77-77a240 240 0 0 1-78 33v109h-104v-109a240 240 0 0 1-78-33l-77 77-73-73 77-77a240 240 0 0 1-33-78h-109v-104h109a240 240 0 0 1 33-78l-77-77 73-73 77 77a240 240 0 0 1 78-33v-109h104v109a240 240 0 0 1 78 33l77-77 73 73-77 77a240 240 0 0 1 33 78z m-345-69a121 121 0 1 0 85 36 121 121 0 0 0-85-36z m0 0m0 293a172 172 0 1 1 173-172 172 172 0 0 1-173 172z m0-293a121 121 0 1 0 85 36 121 121 0 0 0-85-36z m0 0m-276-327h897a69 69 0 0 0 69-69v-35a69 69 0 0 0-69-69h-897a69 69 0 0 0-69 69v35a69 69 0 0 0 69 69z m0 0m483-87a35 35 0 1 0-34 35 35 35 0 0 0 34-35z m0 0m-172 0a35 35 0 1 0-35 35 35 35 0 0 0 35-35z m0 0m344 0a35 35 0 1 0-34 35 35 35 0 0 0 34-35z m0 0m-517 0a35 35 0 1 0-34 35 35 35 0 0 0 34-35z m0 0m690 0a35 35 0 1 0-35 35 35 35 0 0 0 35-35z m0 0m52 87h-156v155h156z m0 0m-52 155h-155v155h155z m0 0m-104-155h-155v155h155z m0 0m-793 379h96a257 257 0 0 1 24-58l-67-68a17 17 0 0 1 0-24l73-74a17 17 0 0 1 24 0l68 68a256 256 0 0 1 58-24v-96a17 17 0 0 1 17-17h104a17 17 0 0 1 17 17v96a256 256 0 0 1 58 24l68-68a18 18 0 0 1 25 0l73 74a17 17 0 0 1 0 24l-68 68a257 257 0 0 1 24 58h96a17 17 0 0 1 17 17v104a17 17 0 0 1-17 17h-96a257 257 0 0 1-24 58l68 68a17 17 0 0 1 0 24l-73 74a17 17 0 0 1-25 0l-68-68a257 257 0 0 1-58 24v96a17 17 0 0 1-17 17h-104a17 17 0 0 1-17-17v-96a257 257 0 0 1-58-24l-68 68a18 18 0 0 1-24 0l-73-74a17 17 0 0 1 0-24l67-68a257 257 0 0 1-24-58h-96a17 17 0 0 1-17-17v-104a17 17 0 0 1 17-17z m18 103h91a17 17 0 0 1 17 14 222 222 0 0 0 30 73 17 17 0 0 1-2 21l-65 65 49 49 65-65a17 17 0 0 1 21-2 222 222 0 0 0 73 30 17 17 0 0 1 14 17v92h69v-92a17 17 0 0 1 13-17 222 222 0 0 0 73-30 17 17 0 0 1 21 2l65 65 49-49-65-65a17 17 0 0 1-2-21 222 222 0 0 0 30-73 17 17 0 0 1 17-14h92v-69h-92a17 17 0 0 1-17-13 222 222 0 0 0-30-73 17 17 0 0 1 2-21l65-65-49-49-65 65a17 17 0 0 1-21 2 222 222 0 0 0-73-30 17 17 0 0 1-13-17v-92h-69v92a17 17 0 0 1-14 17 222 222 0 0 0-73 30 17 17 0 0 1-21-2l-65-65-49 49 65 65a17 17 0 0 1 2 21 222 222 0 0 0-30 73 17 17 0 0 1-17 14h-91z m0 0m327-172a138 138 0 1 1-138 138 138 138 0 0 1 138-138z m0 241a104 104 0 1 0-103-103 104 104 0 0 0 103 103z m0 0m0-293a190 190 0 1 1-190 190 190 190 0 0 1 190-190z m0 345a155 155 0 1 0-155-155 155 155 0 0 0 155 155z m0 0m621-586v138a17 17 0 0 1-17 17h-35v138a17 17 0 0 1-17 17h-155a17 17 0 0 1-18-17v-138h-86a17 17 0 0 1-17-17v-138h-552a86 86 0 0 1-86-86v-35a86 86 0 0 1 86-86h897a86 86 0 0 1 86 86v35a86 86 0 0 1-86 86z m-35 0h-120v121h120z m-172 276h121v-121h-121z m-104-155h121v-121h-121z m363-242a52 52 0 0 0-52-52h-897a52 52 0 0 0-51 52v35a52 52 0 0 0 51 51h897a52 52 0 0 0 52-51z m0 0m-500 69a52 52 0 1 1 51-52 52 52 0 0 1-51 52z m0-69a17 17 0 1 0 17 17 17 17 0 0 0-17-17z m0 0m-173 69a52 52 0 1 1 52-52 52 52 0 0 1-52 52z m0-69a17 17 0 1 0 17 17 17 17 0 0 0-17-17z m0 0m345 69a52 52 0 1 1 52-52 52 52 0 0 1-52 52z m0-69a17 17 0 1 0 17 17 17 17 0 0 0-17-17z m0 0m-517 69a52 52 0 1 1 51-52 52 52 0 0 1-51 52z m0-69a17 17 0 1 0 17 17 17 17 0 0 0-17-17z m0 0m689 69a52 52 0 1 1 52-52 52 52 0 0 1-52 52z m0-69a17 17 0 1 0 18 17 17 17 0 0 0-18-17z m0 0" horiz-adv-x="1069" />

<glyph glyph-name="automatic" unicode="&#xe804;" d="M402 752h215a39 39 0 0 1 39 39v40h-312v-40a39 39 0 0 1 39-39z m0 0m196-214v214h-196v-214a20 20 0 0 1 20-20h156a20 20 0 0 1 20 20z m0 0m-59-20h-78v-78h78z m0 0m-285-355a78 78 0 0 1-39 67v108h-78v-108a78 78 0 0 1-39-67v-137h156z m0 0m168 0v-137h156v137a78 78 0 0 1-39 67v108h-78v-108a78 78 0 0 1-39-67z m0 0m324 0v-137h156v137a78 78 0 0 1-39 67v30h-78v-30a78 78 0 0 1-39-67z m0 0m39 175h78v-78h-78z m0 0m117-312a78 78 0 1 1 79-78 78 78 0 0 1-79 78z m0 0m-78-78a78 78 0 0 0 78 78h-402a78 78 0 0 0 0-157h402a78 78 0 0 0-78 79z m0 0m-246 0a78 78 0 1 0-78 78 78 78 0 0 0 78-78z m0 0m-156 0a78 78 0 0 0 78 78h-402a78 78 0 0 0 78-78z m0 0m0 0h-246a78 78 0 0 0-78-79h402a78 78 0 0 0-78 79z m0 0m-324-79a78 78 0 1 1-78 79 78 78 0 0 1 78-79z m0 0m824 174v120a98 98 0 0 1-39 78v97a20 20 0 0 1-20 20h-78a20 20 0 0 1-19-20v-97a98 98 0 0 1-39-78v-118h-129v118a98 98 0 0 1-39 78v97a20 20 0 0 1-20 20h-78a20 20 0 0 1-20-20v-97a98 98 0 0 1-39-78v-118h-129v118a98 98 0 0 1-39 78v97a20 20 0 0 1-19 20h-78a20 20 0 0 1-20-20v-97a98 98 0 0 1-39-78v-120a98 98 0 0 1 20-193h804a98 98 0 0 1 20 193z m-115-76h-18a20 20 0 0 1 0-39h18a97 97 0 0 1 17-39h-246a97 97 0 0 1 18 39h17a20 20 0 0 1 0 39h-17a97 97 0 0 1-18 39h246a97 97 0 0 1-17-39z m-385 39a97 97 0 0 1-18-39h-211a97 97 0 0 1-17 39z m-229-78h211a97 97 0 0 1 18-39h-246a97 97 0 0 1 17 39z m248 20a59 59 0 1 0 59-59 59 59 0 0 0-59 59z m403 371v-39h-39v39z m-78-156a59 59 0 0 0 29 50 20 20 0 0 1 10 17v11h39v-11a20 20 0 0 1 10-17 59 59 0 0 0 29-50v-118h-117z m-325 0a59 59 0 0 0 30 50 20 20 0 0 1 10 17v89h39v-89a20 20 0 0 1 9-17 59 59 0 0 0 30-50v-118h-118z m-294 50a20 20 0 0 1 9 17v89h39v-89a20 20 0 0 1 10-17 59 59 0 0 0 29-50v-118h-117v118a59 59 0 0 0 30 50z m-108-265a59 59 0 1 0 59-59 59 59 0 0 0-59 59z m863-59a59 59 0 1 0 59 59 59 59 0 0 0-59-59z m0 0m-402 78a20 20 0 1 1 0-39h0a20 20 0 1 1 0 39z m0 0m-383-19a20 20 0 1 1-19-20h0a20 20 0 0 1 19 20z m0 0m785 19a20 20 0 0 1 0-39h0a20 20 0 0 1 0 39z m0 0m-627 844h49v-20a59 59 0 0 1 59-58v-195a39 39 0 0 1 39-40h19v-58a20 20 0 0 1 20-20h20v-5a20 20 0 0 1 39 0v5h19a20 20 0 0 1 20 20v58h19a39 39 0 0 1 39 40v195a59 59 0 0 1 59 58v20h137a20 20 0 0 1 0 39h-538a20 20 0 0 1 0-39z m245-352h-39v39h39z m58 79h-156v195h156z m-215 273h274v-20a20 20 0 0 0-20-19h-234a20 20 0 0 0-20 19z m0 0m338-844h0a20 20 0 1 1 20-19 20 20 0 0 1-20 19z m0 0m-513 844a20 20 0 0 1 0 39h0a20 20 0 1 1 0-39z m0 0" horiz-adv-x="1000" />

<glyph glyph-name="chevron-up" unicode="&#xe805;" d="M9 134l14-14c9-9 24-9 33 0l382 382 381-382c10-9 24-9 34 0l13 14c9 9 9 24 0 33l-412 413c-9 9-24 9-33 0l-412-413c-9-9-9-24 0-33z" horiz-adv-x="875" />

<glyph glyph-name="chevron-down" unicode="&#xe806;" d="M866 532l-14 14c-9 10-24 10-33 0l-381-381-382 381c-9 10-24 10-33 0l-14-14c-10-9-10-24 0-33l412-412c9-9 24-9 33 0l412 412c9 9 9 24 0 33z" horiz-adv-x="875" />

<glyph glyph-name="times" unicode="&#xe80f;" d="M406 350l210 210c12 13 12 32 0 45l-49 48c-12 13-32 13-44 0l-210-210-211 210c-12 13-32 13-44 0l-49-48c-12-13-12-32 0-45l211-210-211-210c-12-13-12-32 0-44l49-49c12-12 32-12 44 0l211 210 210-210c12-12 32-12 44 0l49 49c12 12 12 31 0 44l-210 210z" horiz-adv-x="625" />

<glyph glyph-name="send" unicode="&#xe81b;" d="M625-150l-125 500-500 125 1000 375z" horiz-adv-x="1000" />

<glyph glyph-name="left-angle" unicode="&#xe81c;" d="M509-150l191 188-318 312 318 312-191 188-509-500z" horiz-adv-x="700" />

<glyph glyph-name="right-angle" unicode="&#xe81d;" d="M191 850l-191-187 318-313-318-312 191-188 509 500z" horiz-adv-x="700" />

<glyph glyph-name="checkmark-enclosed" unicode="&#xe81e;" d="M465 171h0a36 36 0 0 0-28 12l-189 206a37 37 0 1 0 55 50l163-177 452 451a37 37 0 0 0 53-52l-480-479a34 34 0 0 0-26-11z m35-321a500 500 0 1 0 0 1000 38 38 0 1 0 0-75 425 425 0 1 1 425-425 38 38 0 0 0 75 0 501 501 0 0 0-500-500z" horiz-adv-x="1000" />

<glyph glyph-name="facebook" unicode="&#xe81f;" d="M589-150v456h155l23 177h-178v111c0 50 17 89 89 89h94v161c-22 0-78 6-139 6a214 214 0 0 1-227-233v-134h-156v-177h156v-456z" horiz-adv-x="1000" />

<glyph glyph-name="instagram" unicode="&#xe820;" d="M500 761a1533 1533 0 0 0 200-5 258 258 0 0 0 94-17 195 195 0 0 0 95-95 258 258 0 0 0 17-94c0-50 5-67 5-200a1533 1533 0 0 0-5-200 258 258 0 0 0-17-94 195 195 0 0 0-95-95 258 258 0 0 0-94-17c-50 0-67-5-200-5a1533 1533 0 0 0-200 5 258 258 0 0 0-94 17 195 195 0 0 0-95 95 258 258 0 0 0-17 94c0 50-5 67-5 200a1533 1533 0 0 0 5 200 258 258 0 0 0 17 94 200 200 0 0 0 39 56 94 94 0 0 0 56 39 258 258 0 0 0 94 17 1533 1533 0 0 0 200 5m0 89a1642 1642 0 0 1-206-6 343 343 0 0 1-122-22 218 218 0 0 1-89-55 218 218 0 0 1-55-89 253 253 0 0 1-22-122 1642 1642 0 0 1-6-206 1642 1642 0 0 1 6-206 343 343 0 0 1 22-122 218 218 0 0 1 55-89 218 218 0 0 1 89-55 343 343 0 0 1 123-23 1642 1642 0 0 1 205-5 1642 1642 0 0 1 206 6 343 343 0 0 1 122 22 233 233 0 0 1 144 144 343 343 0 0 1 23 123c-1 55 5 72 5 205a1642 1642 0 0 1-6 206 343 343 0 0 1-22 122 218 218 0 0 1-55 89 218 218 0 0 1-89 55 343 343 0 0 1-122 22 1642 1642 0 0 1-206 6m0-244a251 251 0 0 1-256-256 256 256 0 1 1 256 256m0-423a164 164 0 0 0-167 167 164 164 0 0 0 167 167 164 164 0 0 0 167-167 164 164 0 0 0-167-167m267 495a61 61 0 1 1 61-61 62 62 0 0 1-61 61" horiz-adv-x="1000" />

<glyph glyph-name="twitter" unicode="&#xe821;" d="M317-86a578 578 0 0 1 583 583v28a452 452 0 0 1 100 106 461 461 0 0 0-117-34 216 216 0 0 1 89 111 510 510 0 0 0-128-50 198 198 0 0 1-150 67 209 209 0 0 1-205-205 108 108 0 0 1 5-45 574 574 0 0 0-422 217 213 213 0 0 1-28-106 221 221 0 0 1 89-172 188 188 0 0 0-94 28h0a203 203 0 0 1 167-200 171 171 0 0 0-56-6 95 95 0 0 0-39 6 210 210 0 0 1 195-145 419 419 0 0 0-256-89 154 154 0 0 0-50 6 524 524 0 0 1 317-100" horiz-adv-x="1000" />

<glyph glyph-name="web" unicode="&#xe822;" d="M150 700a454 454 0 0 0 350 150 454 454 0 0 0 350-150 454 454 0 0 0 150-350 454 454 0 0 0-150-350 454 454 0 0 0-350-150 454 454 0 0 0-350 150 499 499 0 0 0-150 350 454 454 0 0 0 150 350z m417-750a205 205 0 0 1 125 75 364 364 0 0 1 58 175 138 138 0 0 1-42 100 147 147 0 0 1-108 50h-83a243 243 0 0 0-75 17 76 76 0 0 0-25 58 43 43 0 0 0 16 33 63 63 0 0 0 34 17 57 57 0 0 0 41-25c17-8 25-17 34-17a50 50 0 0 1 33 9 50 50 0 0 1 8 33 133 133 0 0 1-41 83 345 345 0 0 1 41 159 18 18 0 0 1-16 16 258 258 0 0 1-67 17 417 417 0 0 1-217-67 210 210 0 0 1-75-166 213 213 0 0 1 67-159 228 228 0 0 1 158-66h0v-34a107 107 0 0 1 34-83 121 121 0 0 1 75-50v-150c0-8 0-8 8-17s8-8 17-8z" horiz-adv-x="1000" />

<glyph glyph-name="industrial-design" unicode="&#xe823;" d="M981 401v-78h-79v78h79z m-40 430a39 39 0 1 0-39-40 39 39 0 0 0 39 40z m-636-553l195 357 195-357-78-207h-234z m312-207a39 39 0 0 0 0-78h-234a39 39 0 0 0 0 78z m-78 719v-38h-78v79h78v-41z m-39-473a39 39 0 1 0-39-39 39 39 0 0 0 39 39z m-402 84v-78h-78v78h78z m-39 430a39 39 0 1 0-39-40 39 39 0 0 0 39 40z m922-411h-24a444 444 0 0 1-52 160 20 20 0 1 1-35-19 405 405 0 0 0 48-141h-16a20 20 0 0 1-19-19v-78a20 20 0 0 1 19-20h79a20 20 0 0 1 19 20v78a20 20 0 0 1-19 19z m-20-78h-39v39h39z m-246-63c0 0 0 0 0 0s0 1 0 2c0 0 0 0 0 0-1 1-1 1-1 2 0 0 0 0 0 0 0 1 0 1-1 2l0 0a19 19 0 0 1 0 2l-196 358a20 20 0 0 1-34 0l-195-358a19 19 0 0 1-1-2l0 0c-1-1-1-1-1-2 0 0 0 0 0 0 0-1 0-1 0-2 0 0 0 0-1 0 0-1 0-1 0-2s0 0 0 0 0-1 0-1 0 0 0-1c0 0 0 0 0 0s0-1 0-2 1 0 1 0q0-1 0-2c0 0 0 0 0 0 0-1 0-1 0-2 0 0 0 0 1 0l70-187a59 59 0 0 1 6-108v-107a20 20 0 0 1 20-19h234a20 20 0 0 1 20 19v107a59 59 0 0 1 6 108l71 187c0 0 0 0 0 0 0 1 0 1 0 2 0 0 0 0 0 0 0 1 1 1 1 2 0 0 0 0 0 0s0 1 0 1 0 1 0 1c0 0 0 1 0 1s0 0 0 1z m-98-21h50l-63-168h-208l-63 168h50a20 20 0 0 1 0 39h-45l143 262v-226a59 59 0 1 1 39 0v226l106-195 36-67h-45a20 20 0 0 1 0-39z m-117 39a20 20 0 1 0-19-19 20 20 0 0 0 19 19z m-98-408v84h196v-84z m229 129a19 19 0 0 0-14-6h-234a20 20 0 0 0 0 39h234a20 20 0 0 0 14-33z m-509 570a20 20 0 0 1-26-8 444 444 0 0 1-53-160h-23a20 20 0 0 1-20-19v-78a20 20 0 0 1 20-20h78a20 20 0 0 1 19 20v78a20 20 0 0 1-19 19h-16a405 405 0 0 0 48 141 20 20 0 0 1-8 27z m-44-246h-39v39h39z m723 363a432 432 0 0 1-111 67h196a59 59 0 1 1 0 39h-327v20a20 20 0 0 1-20 19h-78a20 20 0 0 1-20-19v-20h-327a59 59 0 1 1 0-39h196a432 432 0 0 1-111-67 20 20 0 1 1 25-30c56 48 136 81 217 93v-16a20 20 0 0 1 20-19h78a20 20 0 0 1 20 19v16c81-12 161-45 217-93a20 20 0 0 1 25 30z m140 106a20 20 0 1 0-19-20 20 20 0 0 0 19 20z m-882-39a20 20 0 1 0 19 19 20 20 0 0 0-19-19z m461 0h-39v39h39v-39z m324-117a20 20 0 1 1 19-20 20 20 0 0 1-19 20z m-688 0a20 20 0 1 1 20-20 20 20 0 0 1-20 20z" horiz-adv-x="1000" />

<glyph glyph-name="angle-down" unicode="&#xe824;" d="M1091-150l-1091 1000 2182 0z" horiz-adv-x="2182" />

<glyph glyph-name="computer" unicode="&#xe825;" d="M1109-8h-53v502a67 67 0 0 1-69 65h-90v18a18 18 0 0 1-5 12l-142 142a18 18 0 0 1-13 5h-443a53 53 0 0 1-53-53v-124h-91a67 67 0 0 1-69-65v-502h-53a18 18 0 0 1-18-18v-61a63 63 0 0 1 64-63h990a63 63 0 0 1 63 63v61a18 18 0 0 1-18 18z m-122 532a32 32 0 0 0 34-30v-502h-124v532z m-462-497h17a18 18 0 1 1 0 36h-17v35h17a18 18 0 1 1 0 36h-17v35h17a18 18 0 1 1 0 36h-17v35h17a18 18 0 0 1 0 35h-17v36h17a18 18 0 1 1 0 35h-17v36h17a18 18 0 0 1 0 35h-17v36h88v-461h-88z m194 248h53l1-283h-54z m7 36l20 74 20-74z m-361-231h53l0-17h-53z m52 195l1-159h-53v159z m-45 36l19 74 20-74z m-7-284h53l0-35h-53z m71-71h279a36 36 0 0 0-31-17h-248a35 35 0 0 0-31 17z m319 720l81-81h-81z m-461 25h425v-124a18 18 0 0 1 18-18h124v-567h-53v296a18 18 0 0 1 0 5l-45 164a18 18 0 0 1-17 13h0a18 18 0 0 1-17-13l-44-165a18 18 0 0 1-1-4v-296h-35v478a18 18 0 0 1-18 18h-124a18 18 0 0 1-18-18v-478h-35v296a18 18 0 0 1-1 5l-45 164a18 18 0 0 1-17 13h0a18 18 0 0 1-17-13l-44-164a18 18 0 0 1 0-5v-296h-54v691a18 18 0 0 0 18 18z m-177-207a32 32 0 0 0 33 30h91v-532h-124z m975-581a28 28 0 0 0-28-28h-990a28 28 0 0 0-28 28v43h321a71 71 0 0 1 69-53h248a71 71 0 0 1 68 53h340z m-1052 815a20 20 0 1 1-20-20 20 20 0 0 1 20 20z m92 42a18 18 0 0 1 26 0l12 12 13-12a18 18 0 0 1 25 25l-13 12 13 13a18 18 0 0 1-25 25l-13-13-12 13a18 18 0 0 1-26-25l13-13-13-12a18 18 0 0 1 0-25z m215-140h248a18 18 0 1 1 0 36h-248a18 18 0 1 1 0-36z m0-53h124a18 18 0 0 1 0 35h-124a18 18 0 0 1 0-35z m178 18a18 18 0 0 1 17-18h124a18 18 0 0 1 0 35h-124a18 18 0 0 1-17-17z" horiz-adv-x="1127" />

<glyph glyph-name="general" unicode="&#xe826;" d="M711 334a48 48 0 0 0 27-8l112-75a81 81 0 0 1 45-14h105v32h-105a48 48 0 0 0-27 9l-45 30v542h-613v-97h-210v-903h613v97h210v136c1 0 2 0 3 0l75 19a210 210 0 0 0 51 6h48v32h-48a243 243 0 0 1-59-7l-75-19a211 211 0 0 0-117 5l-28 9a242 242 0 0 1-76 12h-141a48 48 0 0 0 48 49h178a48 48 0 0 1 6 96l13 49z m-21-246a241 241 0 0 1 77-12c8 0 16 1 23 1v-98h-177v53a58 58 0 0 1 12 23l14 49a208 208 0 0 0 24-7z m-84 20l-12-45a27 27 0 0 0-25-19h-6a27 27 0 0 0-25 33l8 31h51c3 0 6 0 9 0z m-93 0l-6-22a59 59 0 0 1 27-67l-5-20 31-8 5 20h4a59 59 0 0 1 12 2v-131h-549v839h210v97h548v-489l-35 24a81 81 0 0 1-44 13h-1l67 249a59 59 0 0 1-57 74h-5a59 59 0 0 1-57-44l-45-166v274h-339v-32h307v-355h-34a80 80 0 0 1-48-16h-160v-32h127l-33-32h-94v-33h62l-27-27a50 50 0 0 1 50-83c0-1 0-2 0-3a32 32 0 0 1 32-32z m124 113h-60l68 252 55-18z m-124 99a49 49 0 0 0 34 14h27l-14-49a80 80 0 0 1-54-23l-84-84a18 18 0 0 0-30 13 18 18 0 0 0 5 12z m16-81a49 49 0 0 0 22 12l-8-30h-32z m216 384l-19-73-56 18 19 69a27 27 0 0 0 26 20h5a27 27 0 0 0 25-34z m-83-86l55-18-9-33-55 18z m20-284a16 16 0 1 0 0-32h-12l9 32z m0 0m-198 436h-419v-162h419z m-32-129h-355v97h355z m0 0m-323 64h32v-32h-32z m0 0m65 0h32v-32h-32z m0 0m64 0h32v-32h-32z m0 0m65 0h32v-32h-32z m0 0m64 0h32v-32h-32z m0 0m-129-290h-32v-65h-129v129h97v33h-129v-194h193z m0 0m53 156l-150-149-21 20-22-22 43-44 173 173z m0 0m-85-495h-129v129h97v33h-129v-194h193v97h-32z m0 0m-86 92l-22-23 43-43 173 173-23 22-150-150z m0 0m376-124h32v-32h-32z m0 0m-209 0h177v-32h-177z m0 0m32 452h209v-33h-209z m0 0" horiz-adv-x="1000" />

<glyph glyph-name="social-media-marketing" unicode="&#xe827;" d="M574-19h-33v161a16 16 0 0 1-33 0v-161h-426v328h136a16 16 0 0 1 0 33h-152a16 16 0 0 1-17-17v-344h-33a16 16 0 0 1-16-16v-33a82 82 0 0 1 82-82h426a82 82 0 0 1 82 82v33a16 16 0 0 1-16 16z m-17-49a49 49 0 0 0-49-49h-33v16a16 16 0 1 1-32 0v-16h-295v16a16 16 0 1 1-33 0v-16h-33a49 49 0 0 0-49 49v16h524z m296 803h32a16 16 0 1 1 0 33h-32a49 49 0 0 1-50-49v-16h-16a16 16 0 1 1 0-33h16v-49a16 16 0 1 1 33 0v49h17a16 16 0 1 1 0 33h-17v16a16 16 0 0 0 17 16z m81 99h-196a49 49 0 0 1-49-50v-32a16 16 0 1 1 32 0v32a16 16 0 0 0 17 17h196a16 16 0 0 0 17-17v-196a16 16 0 0 0-17-17h-196a16 16 0 0 0-17 17v98a16 16 0 1 1-32 0v-98a49 49 0 0 1 49-49h196a49 49 0 0 1 50 49v196a49 49 0 0 1-50 50z m-163-656a66 66 0 1 1 65 65 66 66 0 0 1-65-65z m98 0a33 33 0 1 0-33 33 33 33 0 0 0 33-33z m65 147h-196a49 49 0 0 1-49-49v-196a49 49 0 0 1 49-50h196a49 49 0 0 1 50 50v32a16 16 0 0 1-33 0v-32a16 16 0 0 0-17-17h-196a16 16 0 0 0-17 17v196a16 16 0 0 0 17 17h196a16 16 0 0 0 17-17v-98a16 16 0 1 1 33 0v98a49 49 0 0 1-50 49z m-566 314a16 16 0 0 1 16 0l99 49a16 16 0 0 1 0 29l-99 49a16 16 0 0 1-23-14v-99a16 16 0 0 1 7-14z m25 86l46-23-46-22z m17-170a148 148 0 1 1-148 148 148 148 0 0 1 148-148z m0 262a115 115 0 1 0-115-114 115 115 0 0 0 115 114z m164-328a16 16 0 0 1 13 7l49 66a16 16 0 0 1-26 19l-49-65a16 16 0 0 1 13-27z m36-59a16 16 0 0 1 23-3l65 49a16 16 0 0 1-19 26l-66-49a16 16 0 0 1-3-23z m161-36a16 16 0 0 1-20 13l-82-16a17 17 0 0 1 3-33h3l82 17a16 16 0 0 1 14 19z m-755-3h197a16 16 0 0 1 17 16v263a16 16 0 0 1-17 16h-197a16 16 0 0 1-16-16v-263a16 16 0 0 1 16-16z m17 262h164v-229h-164z m115-32h-33a16 16 0 0 1 0-33h33a16 16 0 1 1 0 33z m0-66h-66a16 16 0 0 1 0-33h66a16 16 0 0 1 0 33z m0-66h-66a16 16 0 0 1 0-32h66a16 16 0 1 1 0 32z m411-93a17 17 0 1 1-28-16l72-125-262-99h-3l-42-24-29-17a33 33 0 0 0-44 12l-33 57a33 33 0 0 0 12 43l57 33 41-71a17 17 0 1 1 28 16l-42 73 206 170 7-12a17 17 0 0 1 28 17l-16 28a17 17 0 0 1-25 5l-230-190-69-40a66 66 0 0 1-31-74l-16-9a49 49 0 0 1 25-92 50 50 0 0 1 24 6l17 10a64 64 0 0 1 28-17 62 62 0 0 1 17-3 65 65 0 0 1 33 9l15 8 32-57a49 49 0 1 1 85 50l-29 52 245 92a16 16 0 0 1 9 23z m-387-280a16 16 0 1 0-16 28l14 8 16-28z m216-46a16 16 0 0 0-28-16l-33 56 27 16h1z" horiz-adv-x="984" />

<glyph glyph-name="techpack" unicode="&#xe828;" d="M632 416h83a17 17 0 1 1 0 33h-83a17 17 0 0 1 0-33z m350 33a17 17 0 0 1-17-17v-549h-849a83 83 0 1 0 84 83 17 17 0 0 1 33 0v450h50a17 17 0 0 1 0 33h-50v50a116 116 0 1 1-233 0v-533a117 117 0 0 1 116-116h866a17 17 0 0 1 16 17v565a17 17 0 0 1-16 17z m-949 50a83 83 0 1 0 167 0v-451a116 116 0 0 1-167 0z m733-256l27-66h0l40-100a17 17 0 0 1 31 0l40 100h0l26 66a16 16 0 0 1 1 6c0 0 1 0 1 0v283a17 17 0 1 1-34 0v-266h-33v383h33v-50a17 17 0 1 1 34 0v166a83 83 0 1 1-167 0v-516c0 0 0 0 0 0a16 16 0 0 1 1-6z m67-77h31l-16-38z m44 33h-57l-14 34h84z m-45 67h-33v383h33z m-33 416v33h99v-33z m0 83a50 50 0 0 0 99 0v-17h-99z m-433-245v-8a50 50 0 0 1 0-93v-3a100 100 0 0 1 69-95 138 138 0 0 0-65-37l-25-6a82 82 0 0 1 20-162h34a17 17 0 1 1 0 33h-34a49 49 0 0 0-12 97l25 6a171 171 0 0 1 97 64 100 100 0 0 1 91 100v3a50 50 0 0 1 0 93v8a149 149 0 0 1 29 188 17 17 0 0 1-29-17 116 116 0 0 0-27-150 17 17 0 0 1-7-13v-12h-14l14 131a17 17 0 0 1-22 17l-44-14-45 14a17 17 0 0 1-22-17l15-131h-15v12a17 17 0 0 1-6 13 116 116 0 0 0 132 191 17 17 0 0 1 17 29 150 150 0 0 1-176-241z m100-171a67 67 0 0 0-67 67h133a67 67 0 0 0-66-67z m-31 276l26-9a17 17 0 0 1 10 0l25 9-12-110h-36z m-2-143h116a17 17 0 1 0 0-33h-166a17 17 0 1 0 0 33z m-148 235a17 17 0 1 1-6 23 17 17 0 0 1 6-23z m345-199a17 17 0 1 1-6 22 17 17 0 0 1 6-22z m17 199a17 17 0 1 1-23 6 17 17 0 0 1 23-6z m-340-177a17 17 0 1 1-6-22 17 17 0 0 1 6 22z m67 250a17 17 0 1 1-22 6 17 17 0 0 1 22-6z m175-807h67a17 17 0 0 1 16 17v28a114 114 0 0 1 16 9l25-14a17 17 0 0 1 22 6l34 58a17 17 0 0 1-7 22l-24 15c1 3 1 6 1 9s0 6-1 9l24 14a17 17 0 0 1 7 23l-34 58a17 17 0 0 1-22 6l-25-14a114 114 0 0 1-16 9v28a17 17 0 0 1-16 17h-67a17 17 0 0 1-17-17v-28a114 114 0 0 1-16-9l-24 14a17 17 0 0 1-23-6l-33-58a17 17 0 0 1 6-23l24-14c0-3 0-6 0-9s0-6 0-10l-24-14a17 17 0 1 1 17-28l33 19a17 17 0 0 1 8 18 80 80 0 0 0 0 30 17 17 0 0 1-8 17l-19 12 17 28 19-11a17 17 0 0 1 19 2 83 83 0 0 0 27 15 17 17 0 0 1 11 16v22h33v-22a17 17 0 0 1 11-16 83 83 0 0 0 26-15 17 17 0 0 1 19-2l20 11 16-28-19-12a17 17 0 0 1-8-17 80 80 0 0 0 0-30 17 17 0 0 1 8-18l20-11-17-29-20 11a17 17 0 0 1-19-1 83 83 0 0 0-26-15 17 17 0 0 1-11-16v-23h-33v23a17 17 0 0 1-11 16 83 83 0 0 0-27 15 17 17 0 0 1-19 1l-34-19a17 17 0 1 1 17-29l24 14a114 114 0 0 1 16-9v-28a17 17 0 0 1 17-17z m83 150a50 50 0 1 1-50-50 50 50 0 0 1 50 50z m-66 0a17 17 0 1 0 16-17 17 17 0 0 0-16 17z m33-216h200a67 67 0 0 1 66 66v33a17 17 0 1 1-33 0v-33a33 33 0 0 0-33-33h-200a17 17 0 0 1 0-33z m-300 66a50 50 0 1 1 50 50 50 50 0 0 1-50-50z m67 0a17 17 0 1 0-17 17 17 17 0 0 0 17-17z" horiz-adv-x="998" />

<glyph glyph-name="website" unicode="&#xe829;" d="M983 850h-931a52 52 0 0 1-52-52v-896a52 52 0 0 1 52-52h931a52 52 0 0 1 52 52v896a52 52 0 0 1-52 52z m-931-34h931a17 17 0 0 0 17-18v-86h-965v86a17 17 0 0 0 17 18z m931-932h-931a17 17 0 0 0-17 18v776h965v-776a17 17 0 0 0-17-18z m-69 725h-793a17 17 0 0 1-17-18v-275a17 17 0 0 1 17-18h793a17 17 0 0 1 17 18v275a17 17 0 0 1-17 18z m-283-256l41 42 62-62h-87z m-27-20h-138l69 92z m-182 0h-130l87 125 66-95z m475 0h-114l-98 98a17 17 0 0 1-25 0l-50-50-62 83a17 17 0 0 1-27 0l-54-72-74 106a17 17 0 0 1-28 0l-115-165h-112v241h759z m-569-138h-207a17 17 0 0 1-17-17v-138a17 17 0 0 1 17-18h207a17 17 0 0 1 17 18v138a17 17 0 0 1-17 17z m-18-35v-98l-75 60a17 17 0 0 1-22 0l-75-60v98z m-49-103h-74l37 30z m360 138h-207a17 17 0 0 1-17-17v-138a17 17 0 0 1 17-18h207a17 17 0 0 1 17 18v138a17 17 0 0 1-17 17z m-17-35v-98l-76 60a17 17 0 0 1-21 0l-76-60v98z m-50-103h-74l37 30z m360 138h-207a17 17 0 0 1-17-17v-138a17 17 0 0 1 17-18h207a17 17 0 0 1 17 18v138a17 17 0 0 1-17 17z m-17-35v-98l-76 60a17 17 0 0 1-21 0l-76-60v98z m-50-103h-74l37 30z m-554-69h-138a17 17 0 1 1 0-35h138a17 17 0 1 1 0 35z m293 0h-138a17 17 0 1 1 0-35h138a17 17 0 1 1 0 35z m293 0h-138a17 17 0 1 1 0-35h138a17 17 0 1 1 0 35z" horiz-adv-x="1034" />

<glyph glyph-name="metallurgy" unicode="&#xe82a;" d="M295 795c-11 0-20 0-29 0a28 28 0 0 0-30 21 28 28 0 0 0 15 31 40 40 0 0 0 15 3h384a29 29 0 0 0 29-21 28 28 0 0 0-13-31 46 46 0 0 0-17-3c-8 0-16 0-25 0v-10c0-84 0-167 0-251a49 49 0 0 1 4-20l275-525a93 93 0 0 0-35-128 82 82 0 0 0-42-11c-245 0-488 0-733 0a93 93 0 0 0-83 133c15 30 30 59 45 87l232 446a40 40 0 0 1 4 16c0 84 0 168 0 253v10m-85-556h227a28 28 0 0 0 24-21c5-18-9-35-31-35h-243a9 9 0 0 1-10-6l-49-98s0-5-4-8h301a44 44 0 0 0 14 0 38 38 0 0 0 16-9 25 25 0 0 0 5-29 29 29 0 0 0-30-17h-336l-4-5c-9-18-19-36-27-54a37 37 0 0 1 24-49 78 78 0 0 1 18 0h725a35 35 0 0 1 30 21 38 38 0 0 1-2 38q-139 264-278 530a57 57 0 0 0-7 26c0 87 0 174 0 262v9h-221v-10c0-88 0-174 0-262a49 49 0 0 0-6-23c-14-28-29-57-44-85l-3-9h112a228 228 0 0 0 26 0 26 26 0 0 0 24-18 28 28 0 0 0-8-29 34 34 0 0 0-24-8h-151a15 15 0 0 1-16-9c-15-31-32-62-49-93 0 0 0-5-4-9m1 0h227a28 28 0 0 0 24-21c5-18-9-35-31-35h-243a9 9 0 0 1-10-6l-49-98s0-5-4-8h301a44 44 0 0 0 14 0 38 38 0 0 0 16-9 25 25 0 0 0 5-29 29 29 0 0 0-30-17h-336l-4-5c-9-18-19-36-27-54a37 37 0 0 1 24-49 78 78 0 0 1 18 0h725a35 35 0 0 1 30 21 38 38 0 0 1-2 38q-139 264-278 530a57 57 0 0 0-7 26c0 87 0 174 0 262v9h-221v-10c0-88 0-174 0-262a49 49 0 0 0-6-23c-14-28-29-57-44-85l-3-9h112a228 228 0 0 0 26 0 26 26 0 0 0 24-18 28 28 0 0 0-8-29 34 34 0 0 0-24-8h-151a15 15 0 0 1-16-9c-15-31-32-62-49-93 0 0 0-5-4-9" horiz-adv-x="916" />

<glyph glyph-name="packaging" unicode="&#xe82b;" d="M431-150h-391a49 49 0 0 0-21 3 30 30 0 0 0-19 30v684a39 39 0 0 0 18 34l339 238a50 50 0 0 0 30 11h713a75 75 0 0 0 15 0 31 31 0 0 0 27-33v-649a44 44 0 0 0-14-33l-273-275a37 37 0 0 0-30-10h-396z m369 693h-736v-629h736z m275 204l-5-4-200-176a17 17 0 0 1-6-15v-592a33 33 0 0 1 6 5q102 102 205 206a19 19 0 0 1 5 14v565z m-590-139l9 0h319a21 21 0 0 1 13 5c64 57 127 114 190 167a22 22 0 0 0 8 3l-5 3h-302a22 22 0 0 1-13-5l-147-116-72-57m-350 0l7 0h233a22 22 0 0 1 13 5l211 170a22 22 0 0 0 7 4c-4 2-5 2-6 2h-204a26 26 0 0 1-13-5l-239-169-9-7m289-257h-156l-17 0a33 33 0 0 0-25 32 32 32 0 0 0 25 31l13 0h317a35 35 0 0 0 34-18 31 31 0 0 0-21-45 61 61 0 0 0-14 0h-156m-289 257l7 0h233a22 22 0 0 1 13 5l211 170a22 22 0 0 0 7 3c-4 3-5 3-6 3h-204a26 26 0 0 1-13-5l-239-169-9-7" horiz-adv-x="1141" />

<glyph glyph-name="agriculture" unicode="&#xe82c;" d="M336 672h-5a146 146 0 0 1-119-125c0-28 0-57 0-85v-19a157 157 0 0 1 23 3 129 129 0 0 1 101 127v91c0 3 0 6 0 8m-293-233s0-3 0-4c0-33 0-67 0-100a129 129 0 0 1 94-122 293 293 0 0 1 30-6c0 34 0 66 0 98a146 146 0 0 1-124 134m293-237a144 144 0 0 1-124-126c-3-33 0-67 0-100a11 11 0 0 1 0-4c7 0 14 0 21 3a129 129 0 0 1 104 129v98z m-126-272c0-19 0-38 0-56s-8-24-20-24a21 21 0 0 0-22 24c0 16 0 31 0 45 0 8-2 10-9 10a172 172 0 0 0-159 174v110c0 25 3 28 26 34l-4 9a171 171 0 0 0-22 84c0 37 0 74 0 111 0 22 4 27 27 30 0 3-3 6-5 9a177 177 0 0 0-22 86c0 82 0 164 0 247a46 46 0 0 0 0 13 21 21 0 0 0 25 14 20 20 0 0 0 17-21v-103c0-8 0-12 11-13a186 186 0 0 0 107-57 67 67 0 0 1 8-10v12c0 56 0 112 0 168a21 21 0 1 0 42 0c0-45 0-91 0-137v-39l3 0a20 20 0 0 0 4 7 183 183 0 0 0 111 56c7 0 8 3 8 9v104a22 22 0 0 0 11 21 21 21 0 0 0 31-19v-100c0-50 0-100 0-149a180 180 0 0 0-23-92l-3-7 7 0a20 20 0 0 0 19-20c0-46 0-91 0-134a160 160 0 0 0-21-70l-5-10 7 0a20 20 0 0 0 19-20c0-46 0-88 0-133a171 171 0 0 0-156-162l-12 0m126 741h-5a146 146 0 0 1-119-125c0-28 0-57 0-85v-19a157 157 0 0 1 23 3 129 129 0 0 1 101 127v91c0 3 0 6 0 8m-293 0c0-33 0-65 0-97a128 128 0 0 1 75-120 109 109 0 0 1 50-12c0 27 0 54 0 80a146 146 0 0 1-39 103 146 146 0 0 1-87 46m167-465a150 150 0 0 1 24 3 129 129 0 0 1 103 129v91c0 3 0 6 0 8a146 146 0 0 1-119-102 591 591 0 0 1-7-127m-42-235c0 4 0 6 0 9v73a144 144 0 0 1-38 100 143 143 0 0 1-87 46s0-3 0-4c0-34 0-67 0-101a130 130 0 0 1 125-125m-125 467s0-3 0-4c0-33 0-67 0-100a129 129 0 0 1 94-122 293 293 0 0 1 30-6c0 34 0 66 0 98a146 146 0 0 1-124 134m293-236a144 144 0 0 1-124-125c-3-33 0-67 0-101a11 11 0 0 1 0-3c7 0 14 0 21 3a129 129 0 0 1 104 129v96z" horiz-adv-x="378" />

<glyph glyph-name="apparel" unicode="&#xe82d;" d="M150 229a45 45 0 0 0-41 20c-33 33-64 66-95 100a36 36 0 0 0-4 55 656 656 0 0 0 140 154 185 185 0 0 0 123 33 48 48 0 0 0 24-14 129 129 0 0 1 55-34c9 17 18 34 27 51a870 870 0 0 0 105 154 241 241 0 0 0 152 95c20 4 42 7 64 7a40 40 0 0 0 31-14 191 191 0 0 1 155-60 195 195 0 0 1 138 63 38 38 0 0 0 26 11 296 296 0 0 0 115-20 269 269 0 0 0 102-81 952 952 0 0 0 139-222 32 32 0 0 0-6-39c-49-54-97-106-146-158-14-15-29-15-54 0v-437c0-29-13-42-41-42h-969c-28 0-40 12-40 40v338z m1079 174l3 0 99 109a20 20 0 0 1 0 15c-14 25-27 50-42 74a681 681 0 0 1-102 133 167 167 0 0 1-116 47 26 26 0 0 1-15-5 273 273 0 0 0-361 0 18 18 0 0 1-13 5 164 164 0 0 1-114-40 671 671 0 0 1-109-144c-10-16-20-34-31-55a145 145 0 0 1 64 35 42 42 0 0 0 24 13 186 186 0 0 0 123-34 641 641 0 0 0 140-156 35 35 0 0 0-4-54c-30-32-59-63-88-95-13-15-25-30-48-25v-311h492v492a33 33 0 0 0 22 35 35 35 0 0 0 39-11c10-10 22-21 33-32m-1084-89a219 219 0 0 0 19 19 44 44 0 0 0 18 10c23 4 40-11 40-37v-383h355v385a32 32 0 0 0 21 33 33 33 0 0 0 38-9l17-19 65 71a656 656 0 0 1-101 114 114 114 0 0 1-67 28 31 31 0 0 1-20-6 207 207 0 0 0-262 0 20 20 0 0 1-12 6 100 100 0 0 1-65-22c-24-22-47-44-68-67s-29-35-43-55l65-71m0 3a219 219 0 0 0 19 19 44 44 0 0 0 18 10c23 4 40-11 40-37v-383h355v385a32 32 0 0 0 21 33 33 33 0 0 0 38-9l17-19 65 71a656 656 0 0 1-101 114 114 114 0 0 1-67 28 31 31 0 0 1-20-6 207 207 0 0 0-262 0 20 20 0 0 1-12 6 100 100 0 0 1-65-22c-24-22-47-44-68-67s-29-35-43-55l65-71" horiz-adv-x="1409" />

<glyph glyph-name="auto" unicode="&#xe82e;" d="M600 72a134 134 0 1 1-267 0 134 134 0 0 1 267 0m1502 186a242 242 0 0 1-212 221l-169 25-201 29a49 49 0 0 0-23 12c-62 60-122 122-183 182l-60 60a215 215 0 0 1-157 63h-480a230 230 0 0 1-172-74c-34-35-69-70-103-104l-83-83a25 25 0 0 0-26-6 801 801 0 0 1-89 0 159 159 0 0 1-144-159c0-74 0-150 0-223v-68a111 111 0 0 1 44-89 134 134 0 0 1 89-28h117a224 224 0 0 1 432 0h742c0-8 6-14 8-20a203 203 0 0 1 50-78h0a200 200 0 0 1 154-68h6a223 223 0 0 1 213 167h47c31 0 62 0 94 0a114 114 0 0 1 106 101 880 880 0 0 1 0 137m-1502-183a134 134 0 1 0-135 137 134 134 0 0 0 135-137m1171 0a131 131 0 0 0-125-134 134 134 0 1 0-11 267 132 132 0 0 0 136-134m244 67c0-26-11-38-39-38h-121a220 220 0 0 1-63 129 209 209 0 0 1-155 63 221 221 0 0 1-213-188h-741a222 222 0 0 1-60 130 210 210 0 0 1-155 63 221 221 0 0 1-220-193h-128a30 30 0 0 0-31 34c0 89 0 186 0 280a74 74 0 0 0 77 76h89a69 69 0 0 1 58 24l202 202a129 129 0 0 0 95 41c161 0 323 0 485 0a139 139 0 0 0 105-44q123-126 248-249a68 68 0 0 1 37-17c130-21 261-40 390-59a156 156 0 0 0 140-165v-89m-244-65a132 132 0 0 1-136 135 134 134 0 1 1 11-267 131 131 0 0 1 125 134" horiz-adv-x="2105" />

<glyph glyph-name="bags" unicode="&#xe82f;" d="M91 538l0-13-5-71c-5-66-11-131-16-197s-9-120-14-179a228 228 0 0 1 0-73 121 121 0 0 1 119-103h456a106 106 0 0 1 60 15 137 137 0 0 1 63 129c-3 50-8 100-12 149q-12 150-23 300c0 14-3 28-4 42h-99c0-15 0-29 0-43a8 8 0 0 1 7-9 73 73 0 1 0-55 0c3 0 8 4 8 6 0 15 0 30 0 46h-341c0-14 0-27 0-40s0-10 8-12a73 73 0 1 0-55 0s5 3 5 5c0 15 0 31 0 45z m718-490c0 36-5 73-8 109l-4 42-21 240c-3 35-6 70-9 104l0 10a143 143 0 0 1-5 33c-7 23-15 46-22 69-5 15-10 29-15 46a23 23 0 0 1-23 16h-109a197 197 0 0 1-176 133 193 193 0 0 1-120-31 207 207 0 0 1-82-102h-124l-4-11 0-6-8-25c-10-28-19-56-28-85a116 116 0 0 1-5-20c0-27-5-53-7-79l-27-319-12-112a203 203 0 0 1 41-146 157 157 0 0 1 129-64h469a154 154 0 0 1 111 46 191 191 0 0 1 58 152m-115-130a106 106 0 0 0-59-15c-153 0-305 0-456 0a121 121 0 0 0-120 103 228 228 0 0 0 0 72c5 60 10 120 15 179s10 132 15 197c2 24 4 46 6 71a130 130 0 0 0 0 13h100c0-16 0-31 0-45 0 0-3-4-5-5a74 74 0 1 1 54-3c-7 3-9 6-9 12s0 27 0 40h340c0-15 0-30 0-46 0 0-4-5-7-5a74 74 0 0 1 15-142 74 74 0 0 1 41 141 8 8 0 0 0-7 9c0 14 0 28 0 43h101c0-14 0-28 4-42q11-150 24-300c3-49 9-99 11-149a137 137 0 0 0-63-129m-458 522l0 0a32 32 0 0 0 4-45 34 34 0 0 0-46 0 32 32 0 0 0 0 49c0-11 0-21 0-31a21 21 0 1 1 41 4c0 8 0 17 0 25m-37 139h-96l22 66c6 17 6 17 24 17h64l-14-83m80 83h280l15-83h-334c4 21 7 41 11 61 0 7 0 17 6 21s14 0 22 0m-8 42a147 147 0 0 0 273 0z m334-42h72c2 0 6 0 7-3 9-26 17-53 27-80h-97c0 14-3 27-6 41s-5 27-7 42l4 0m10-253l3 30a28 28 0 0 0 10-32 33 33 0 0 0-31-24 33 33 0 0 0-32 23 32 32 0 0 0 12 35c0-11 0-19 0-28a20 20 0 0 1 18-19 19 19 0 0 1 22 18" horiz-adv-x="810" />

<glyph glyph-name="beauty" unicode="&#xe830;" d="M338 204v-9q0-145 0-290c0-8-3-10-11-10l-272 0h-8v309z m-85 563a121 121 0 0 1-27-9 197 197 0 0 1-87-96 185 185 0 0 1-15-60 41 41 0 0 1 8-12c11-8 23 0 27 13a204 204 0 0 0 10 38 150 150 0 0 0 93 94 16 16 0 0 1 10 20 16 16 0 0 1-19 12m131-627v82c0 18-4 25-18 28v155h-33v404a44 44 0 0 1-13 32 41 41 0 0 1-31 9 316 316 0 0 1-41-4 241 241 0 0 1-197-241v-201h-34v-153l-16 0 0-14a27 27 0 0 1-1-7v-333a46 46 0 0 1 48-47h286a50 50 0 0 1 35 14 53 53 0 0 1 15 36c0 79 0 159 0 238m-64 102h-256v117h256z m-222 162c0 70 0 139 0 209a195 195 0 0 0 181 192h6v-409h-187a58 58 0 0 0 0 8m240-198v-9q0-145 0-290c0-8-3-10-10-10l-273 0h-8v309z" horiz-adv-x="384" />

<glyph glyph-name="electrical" unicode="&#xe831;" d="M125 642v164a42 42 0 1 0 84 0v-164h166v165a40 40 0 0 0 23 38 39 39 0 0 0 42-3 40 40 0 0 0 19-34c0-51 0-104 0-156v-11h80a42 42 0 0 0 45-45c0-26 0-51 0-78a202 202 0 0 0-116-188 14 14 0 0 1-9-14 488 488 0 0 0 0-66 122 122 0 0 0-119-107h-6c0-3 0-6 0-8 0-25 0-51 0-75a121 121 0 0 1 75-115 119 119 0 0 1 130 19 117 117 0 0 1 44 93c0 42 0 83 0 125a209 209 0 1 0 417 5v-126a42 42 0 0 0-42-43 41 41 0 0 0-41 43c0 41 0 82 0 123a125 125 0 0 1-206 96 118 118 0 0 1-44-95c0-41 0-82 0-124a202 202 0 0 0-89-172 208 208 0 0 0-322 127 411 411 0 0 0-3 60c0 22 0 43 0 65-6 0-12 0-18 0a125 125 0 0 0-108 127c0 16 0 33 0 51a10 10 0 0 1-7 11 205 205 0 0 0-115 151 300 300 0 0 0 0 48c-5 24-5 46-5 69a40 40 0 0 0 40 42c26 0 50 0 77 0h8m-42-82v-39a125 125 0 0 1 126-128c55 0 110 0 165 0 88 0 139 73 125 167z m291-252l0 0h-160c-5 0-5 0-5-7v-34a40 40 0 0 1 39-42c29 0 58 0 87 0a40 40 0 0 1 39 34c0 16 0 31 0 48m-291 253v-39a125 125 0 0 1 126-128c55 0 110 0 165 0 88 0 139 73 125 167z" horiz-adv-x="1000" />

<glyph glyph-name="electronics" unicode="&#xe832;" d="M1212 850h-1151c-45 0-61-16-61-57v-771c0-43 16-61 61-61h244c-7-15-15-28-21-42a46 46 0 0 1 17-65 47 47 0 0 1 65 23l0 11c13 24 26 47 37 71l0 0a5 5 0 0 0 4 0q223 0 447 0c5 0 5 0 6-5 11-21 22-42 33-61l8-14a51 51 0 0 1 44-30 44 44 0 0 1 20 5 46 46 0 0 1 17 68l-20 39h247c43 0 61 16 61 61v767c0 44-16 61-61 61m-18-793c0-5 0-10 0-17h-1113v733h1098c13 0 19 0 19-18q0-351 0-701m-1 3c0-5 0-10 0-17h-1116v733h1098c13 0 19 0 19-18q0-351 0-701" horiz-adv-x="1270" />

<glyph glyph-name="gifts" unicode="&#xe835;" d="M55 405h-55v222h296l0 0-7 5a170 170 0 0 0-66 75 100 100 0 0 0 22 118 92 92 0 0 0 64 25 135 135 0 0 0 95-34 340 340 0 0 0 77-95c7-13 14-26 21-40a48 48 0 0 1 4 8 465 465 0 0 0 67 103 163 163 0 0 0 88 55 101 101 0 0 0 95-23 98 98 0 0 0 22-117 164 164 0 0 0-61-68l-17-11h298v-223h-53v-555h-890z m418 0h-362v-500h362z m416 0h-360v-500h360z m-834 56h417v111h-417z m889 110h-416v-110h416z m-405 65l3 0 31 3a306 306 0 0 1 107 41 110 110 0 0 1 48 57 42 42 0 0 1-44 57 80 80 0 0 1-48-17 245 245 0 0 1-59-70c-13-23-25-48-38-70m-79 0l0 5a448 448 0 0 1-66 102 248 248 0 0 1-36 35 67 67 0 0 1-42 15 43 43 0 0 1-44-60 102 102 0 0 1 29-39 207 207 0 0 1 71-40 388 388 0 0 1 88-22" horiz-adv-x="999" />

<glyph glyph-name="home" unicode="&#xe836;" d="M1466-17v-95a34 34 0 0 0-38-39h-191a33 33 0 0 0-37 37c0 32 0 63 0 95h-800v-88c0-33-11-44-45-44h-180c-30 0-42 12-42 42v91l-45 0a98 98 0 0 0-88 98c0 135 0 271 0 407a99 99 0 0 0 104 97h29a110 110 0 0 1 0 14v148a101 101 0 0 0 103 104h1122a102 102 0 0 0 84-35 98 98 0 0 0 24-66v-165c17 0 33 0 48 0a96 96 0 0 0 84-94c0-133 0-265 0-398a102 102 0 0 0-105-106h-27m-134 398v96a101 101 0 0 0 60 95 16 16 0 0 1 7 12v163a30 30 0 0 1-26 31 64 64 0 0 1-17 0h-1110a42 42 0 0 1-10 0 33 33 0 0 1-34-35v-158a13 13 0 0 1 10-15 94 94 0 0 0 50-55 117 117 0 0 0 5-38c0-32 0-64 0-96z m-533-334h694c27 0 40 12 40 39v391a34 34 0 0 1-39 38h-56c-26 0-39-12-39-40v-251c0-29-11-41-40-41h-1118c-29 0-41 12-41 41v253a32 32 0 0 1-32 35h-69a32 32 0 0 1-32-35v-399a47 47 0 0 1 9-23 40 40 0 0 1 35-11z m-532 200h1065v66h-1065z m-66-332h131v64h-131z m1066 0h131v64h-131z m-468 132h694c27 0 40 12 40 39v391a34 34 0 0 1-39 38h-56c-26 0-39-12-39-40v-251c0-29-11-42-40-42h-1118c-29 0-41 13-41 42v253a32 32 0 0 1-32 35h-69a32 32 0 0 1-32-35v-399a47 47 0 0 1 9-23 40 40 0 0 1 35-11z" horiz-adv-x="1599" />

<glyph glyph-name="machinery" unicode="&#xe837;" d="M672-25h-250a12 12 0 0 1-14-11 166 166 0 0 0-318 8 18 18 0 0 1-12 13 123 123 0 0 0-78 117v246a124 124 0 0 0 98 126 176 176 0 0 0 34 0h35v329a43 43 0 0 0 48 47h223a166 166 0 0 0 166-136l76-353a58 58 0 0 1 3-11h70a123 123 0 0 0 120-104 257 257 0 0 0 0-53 16 16 0 0 1 13-19 166 166 0 1 0-211-210 93 93 0 0 0-4 11m-581 100h4l3 8a167 167 0 0 0 312-16c0-7 5-9 13-9h249a172 172 0 0 0 97 111c23 10 24 10 23 36a108 108 0 0 1-2 33 42 42 0 0 1-46 28h-320a49 49 0 0 0-47 24c-19 32-40 63-62 94a15 15 0 0 1-10 7c-61 0-122 0-182 0a40 40 0 0 1-40-41c0-83 0-167 0-250a100 100 0 0 1 7-25m161 691v-292c26 0 51 0 75 0a50 50 0 0 0 47-25c19-31 40-61 61-92a17 17 0 0 1 15-9h148a74 74 0 0 1 0 12l-73 335a83 83 0 0 1-88 71h-184z m0-669a83 83 0 0 1 0-166 83 83 0 1 1 0 166m664-80a83 83 0 1 1-83-84 83 83 0 0 1 83 84m127 292h92c13 0 25 0 37 0a41 41 0 0 0 3-82h-167a43 43 0 0 0-48 48v532a40 40 0 0 0 23 38 40 40 0 0 0 43-4 44 44 0 0 0 17-37v-495z m-791-212a83 83 0 0 1 0-166 83 83 0 1 1 0 166m664-80a83 83 0 1 1-83-84 83 83 0 0 1 83 84m-663 749v-292c25 0 50 0 75 0a50 50 0 0 0 46-25c20-31 41-61 61-92a17 17 0 0 1 16-9h147a74 74 0 0 1 0 12l-73 335a83 83 0 0 1-88 71h-184z" horiz-adv-x="1208" />

<glyph glyph-name="pinterest-circled" unicode="&#xf0d2;" d="M857 350q0-117-57-215t-156-156-215-58q-62 0-122 18 33 52 43 92 6 19 31 118 11-22 40-38t64-16q68 0 121 38t82 105 29 151q0 64-34 120t-96 90-142 36q-59 0-110-17t-86-43-61-61-37-72-12-75q0-58 22-102t66-62q16-7 21 11 1 4 4 17t5 17q3 13-6 24-29 34-29 84 0 84 58 145t153 61q84 0 132-46t47-119q0-95-39-161t-98-67q-34 0-54 25t-13 58q4 19 15 52t17 57 6 43q0 28-15 46t-43 18q-35 0-59-31t-24-80q0-40 14-68l-55-233q-9-39-7-99-115 51-186 157t-71 236q0 117 58 215t155 156 216 58 215-58 156-156 57-215z" horiz-adv-x="857.1" />
</font>
</defs>
</svg>
